<?xml version="1.0" encoding="utf-8"?>
<!-- Generator: Adobe Illustrator 16.0.3, SVG Export Plug-In . SVG Version: 6.00 Build 0)  -->
<!DOCTYPE svg PUBLIC "-//W3C//DTD SVG 1.1//EN" "http://www.w3.org/Graphics/SVG/1.1/DTD/svg11.dtd">
<svg version="1.1" id="Capa_1" xmlns="http://www.w3.org/2000/svg" xmlns:xlink="http://www.w3.org/1999/xlink" x="0px" y="0px"
	 width="1243.748px" height="544.292px" viewBox="8.752 -4 1243.748 544.292" enable-background="new 8.752 -4 1243.748 544.292"
	 xml:space="preserve">
<g>
	<rect x="8.752" y="-4" opacity="0.8" fill="#8DB39C" width="203.417" height="546.292"/>
	<rect x="212.19" y="-4" opacity="0.8" fill="#D6FFE6" width="207.416" height="546.292"/>
	<rect x="419.286" y="-4" opacity="0.8" fill="#AFB38D" width="207.416" height="546.292"/>
	<rect x="626.702" y="-4" opacity="0.8" fill="#FCFFD6" width="203.585" height="544.292"/>
	<rect x="830.287" y="-4" opacity="0.8" fill="#FFE4FA" width="202.664" height="544.292"/>
	<rect x="1032.162" y="-4" opacity="0.8" fill="#31AAC6" width="226.838" height="544.292"/>
	<text id="text23_36_" transform="matrix(1 0 0 1 82.5154 533.96)" font-family="'ArialNarrow-Bold'" font-size="18">1990-1994</text>
	<text id="text23_35_" transform="matrix(1 0 0 1 287.9524 533.96)" font-family="'ArialNarrow-Bold'" font-size="18">1995-1999</text>
	<text id="text23_34_" transform="matrix(1 0 0 1 495.0491 533.96)" font-family="'ArialNarrow-Bold'" font-size="18">2000-2004</text>
	<text id="text23_33_" transform="matrix(1 0 0 1 694.6331 533.96)" font-family="'ArialNarrow-Bold'" font-size="18">2005-2009</text>
	<text id="text23_32_" transform="matrix(1 0 0 1 900.9963 533.96)" font-family="'ArialNarrow-Bold'" font-size="18">2010-2014</text>
	<text id="text23_31_" transform="matrix(1 0 0 1 1113.3108 533.96)" font-family="'ArialNarrow-Bold'" font-size="18">2015-2020</text>
</g>
<circle fill="#606060" stroke="#FFFFFF" cx="30" cy="30" r="11.17"/>
<text id="text23" transform="matrix(1 0 0 1 41.1702 30)" enable-background="new    "><tspan x="0" y="0" font-family="'ArialNarrow-Bold'" font-size="22">CHARACTER </tspan><tspan x="0" y="26.4" font-family="'ArialNarrow-Bold'" font-size="22">RECOGNITION</tspan></text>
<circle fill="#606060" stroke="#FFFFFF" cx="30" cy="284" r="10.069"/>
<text id="text23_1_" transform="matrix(1 0 0 1 41.1702 284)" enable-background="new    "><tspan x="0" y="0" font-family="'ArialNarrow-Bold'" font-size="22">TEXT </tspan><tspan x="0" y="26.4" font-family="'ArialNarrow-Bold'" font-size="22">RECOGNITION</tspan></text>
<circle fill="#606060" stroke="#FFFFFF" cx="240" cy="30" r="19.312"/>
<text id="text23_2_" transform="matrix(1 0 0 1 259.3118 30)" enable-background="new    "><tspan x="0" y="0" font-family="'ArialNarrow-Bold'" font-size="22">CHARACTER </tspan><tspan x="0" y="26.4" font-family="'ArialNarrow-Bold'" font-size="22">RECOGNITION</tspan></text>
<circle fill="#606060" stroke="#FFFFFF" cx="240" cy="157" r="14.781"/>
<text id="text23_3_" transform="matrix(1 0 0 1 254.781 157)" enable-background="new    "><tspan x="0" y="0" font-family="'ArialNarrow-Bold'" font-size="22">NUMERAL </tspan><tspan x="0" y="26.4" font-family="'ArialNarrow-Bold'" font-size="22">RECOGNITION</tspan></text>
<circle fill="#606060" stroke="#FFFFFF" cx="240" cy="284" r="9.316"/>
<text id="text23_4_" transform="matrix(1 0 0 1 249.3167 284)" enable-background="new    "><tspan x="0" y="0" font-family="'ArialNarrow-Bold'" font-size="22">CHINESE </tspan><tspan x="0" y="26.4" font-family="'ArialNarrow-Bold'" font-size="22">CHARACTER </tspan><tspan x="0" y="52.8" font-family="'ArialNarrow-Bold'" font-size="22">RECOGNITION</tspan></text>
<circle fill="#606060" stroke="#FFFFFF" cx="240" cy="411" r="8.952"/>
<text id="text23_5_" transform="matrix(1 0 0 1 248.9514 411)" font-family="'ArialNarrow-Bold'" font-size="22">WORD SPOTTING</text>
<line opacity="0.25" fill="none" stroke="#000000" stroke-width="7.5" x1="42.271" y1="30" x2="221.788" y2="30"/>
<line opacity="0.25" fill="none" stroke="#000000" stroke-width="3.3333" x1="41.17" y1="30" x2="225.219" y2="157"/>
<line opacity="0.25" fill="none" stroke="#000000" stroke-width="7.5" stroke-dasharray="27,15" x1="41.17" y1="30" x2="230.683" y2="284"/>
<line opacity="0.25" fill="none" stroke="#000000" stroke-width="5" stroke-dasharray="27,15" x1="40.07" y1="284" x2="220.688" y2="30"/>
<line opacity="0.25" fill="none" stroke="#000000" stroke-width="5" stroke-dasharray="27,15" x1="40.07" y1="284" x2="225.219" y2="157"/>
<line opacity="0.25" fill="none" stroke="#000000" stroke-width="5" x1="40.07" y1="284" x2="231.048" y2="411"/>
<circle fill="#606060" stroke="#FFFFFF" cx="450" cy="30" r="30"/>
<text id="text23_6_" transform="matrix(1 0 0 1 481.1003 30)" enable-background="new    "><tspan x="0" y="0" font-family="'ArialNarrow-Bold'" font-size="22">CHARACTER </tspan><tspan x="0" y="26.4" font-family="'ArialNarrow-Bold'" font-size="22">RECOGNITION</tspan></text>
<circle fill="#606060" stroke="#FFFFFF" cx="450" cy="157" r="18.021"/>
<text id="text23_7_" transform="matrix(1 0 0 1 468.0203 157)" font-family="'ArialNarrow-Bold'" font-size="22">HMM</text>
<circle fill="#606060" stroke="#FFFFFF" cx="450" cy="284" r="12.365"/>
<text id="text23_8_" transform="matrix(1 0 0 1 462.365 284)" enable-background="new    "><tspan x="0" y="0" font-family="'ArialNarrow-Bold'" font-size="22">CHINESE </tspan><tspan x="0" y="26.4" font-family="'ArialNarrow-Bold'" font-size="22">CHARACTER </tspan><tspan x="0" y="52.8" font-family="'ArialNarrow-Bold'" font-size="22">RECOGNITION</tspan></text>
<circle fill="#606060" stroke="#FFFFFF" cx="450" cy="411" r="12.984"/>
<text id="text23_9_" transform="matrix(1 0 0 1 462.9836 411)" enable-background="new    "><tspan x="0" y="0" font-family="'ArialNarrow-Bold'" font-size="22">WRITER </tspan><tspan x="0" y="26.4" font-family="'ArialNarrow-Bold'" font-size="22">IDENTIFICATION</tspan></text>
<line opacity="0.25" fill="none" stroke="#000000" stroke-width="7.5" x1="260.412" y1="30" x2="421.101" y2="30"/>
<line opacity="0.25" fill="none" stroke="#000000" stroke-width="2.5" x1="259.312" y1="30" x2="431.98" y2="157"/>
<line opacity="0.25" fill="none" stroke="#000000" stroke-width="3" stroke-dasharray="27,15" x1="259.312" y1="30" x2="437.635" y2="284"/>
<line opacity="0.25" fill="none" stroke="#000000" stroke-width="5" x1="254.781" y1="157" x2="420" y2="30"/>
<line opacity="0.25" fill="none" stroke="#000000" stroke-width="3.3333" stroke-dasharray="27,15" x1="254.781" y1="157" x2="431.98" y2="157"/>
<line opacity="0.25" fill="none" stroke="#000000" stroke-width="1.6667" stroke-dasharray="27,15" x1="254.781" y1="157" x2="437.635" y2="284"/>
<line opacity="0.25" fill="none" stroke="#000000" stroke-width="3.75" stroke-dasharray="27,15" x1="249.317" y1="284" x2="420" y2="30"/>
<line opacity="0.25" fill="none" stroke="#000000" stroke-width="3.75" stroke-dasharray="27,15" x1="249.317" y1="284" x2="431.98" y2="157"/>
<line opacity="0.25" fill="none" stroke="#000000" stroke-width="3.75" x1="249.317" y1="284" x2="437.635" y2="284"/>
<line opacity="0.25" fill="none" stroke="#000000" stroke-width="5" stroke-dasharray="27,15" x1="248.951" y1="411" x2="420" y2="30"/>
<circle fill="#606060" stroke="#FFFFFF" cx="660" cy="30" r="20.072"/>
<text id="text23_10_" transform="matrix(1 0 0 1 681.1721 30)" enable-background="new    "><tspan x="0" y="0" font-family="'ArialNarrow-Bold'" font-size="22">FEATURE</tspan><tspan x="0" y="26.4" font-family="'ArialNarrow-Bold'" font-size="22">EXTRACTION</tspan></text>
<circle fill="#606060" stroke="#FFFFFF" cx="660" cy="157" r="17.766"/>
<text id="text23_11_" transform="matrix(1 0 0 1 677.7659 157)" font-family="'ArialNarrow-Bold'" font-size="22">HMM</text>
<circle fill="#606060" stroke="#FFFFFF" cx="660" cy="284" r="9.872"/>
<text id="text23_12_" transform="matrix(1 0 0 1 669.8713 284)" enable-background="new    "><tspan x="0" y="0" font-family="'ArialNarrow-Bold'" font-size="22">CHINESE </tspan><tspan x="0" y="26.4" font-family="'ArialNarrow-Bold'" font-size="22">CHARACTER </tspan><tspan x="0" y="52.8" font-family="'ArialNarrow-Bold'" font-size="22">RECOGNITION</tspan></text>
<circle fill="#606060" stroke="#FFFFFF" cx="660" cy="411" r="8.246"/>
<text id="text23_13_" transform="matrix(1 0 0 1 668.2454 411)" enable-background="new    "><tspan x="0" y="0" font-family="'ArialNarrow-Bold'" font-size="22">WRITER </tspan><tspan x="0" y="26.4" font-family="'ArialNarrow-Bold'" font-size="22">IDENTIFICATION</tspan></text>
<line opacity="0.25" fill="none" stroke="#000000" stroke-width="6.25" x1="480" y1="30" x2="639.928" y2="30"/>
<line opacity="0.25" fill="none" stroke="#000000" stroke-width="2.5" stroke-dasharray="27,15" x1="480" y1="30" x2="642.234" y2="157"/>
<line opacity="0.25" fill="none" stroke="#000000" stroke-width="3" stroke-dasharray="27,15" x1="480" y1="30" x2="650.127" y2="284"/>
<line opacity="0.25" fill="none" stroke="#000000" stroke-width="2.5" stroke-dasharray="27,15" x1="480" y1="30" x2="651.754" y2="411"/>
<line opacity="0.25" fill="none" stroke="#000000" stroke-width="2.5" stroke-dasharray="27,15" x1="468.02" y1="157" x2="639.928" y2="30"/>
<line opacity="0.25" fill="none" stroke="#000000" stroke-width="7.5" x1="468.02" y1="157" x2="642.234" y2="157"/>
<line opacity="0.25" fill="none" stroke="#000000" stroke-width="3" stroke-dasharray="27,15" x1="462.365" y1="284" x2="639.928" y2="30"/>
<line opacity="0.25" fill="none" stroke="#000000" stroke-width="1.5" stroke-dasharray="27,15" x1="462.365" y1="284" x2="642.234" y2="157"/>
<line opacity="0.25" fill="none" stroke="#000000" stroke-width="7.5" x1="462.365" y1="284" x2="650.127" y2="284"/>
<line opacity="0.25" fill="none" stroke="#000000" stroke-width="3.75" stroke-dasharray="27,15" x1="462.984" y1="411" x2="639.928" y2="30"/>
<line opacity="0.25" fill="none" stroke="#000000" stroke-width="11.25" x1="462.984" y1="411" x2="651.754" y2="411"/>
<circle fill="#606060" stroke="#FFFFFF" cx="870" cy="30" r="25.312"/>
<text id="text23_14_" transform="matrix(1 0 0 1 896.4124 30)" enable-background="new    "><tspan x="0" y="0" font-family="'ArialNarrow-Bold'" font-size="22">CHARACTER </tspan><tspan x="0" y="26.4" font-family="'ArialNarrow-Bold'" font-size="22">RECOGNITION</tspan></text>
<circle fill="#606060" stroke="#FFFFFF" cx="870" cy="93" r="21.089"/>
<text id="text23_15_" transform="matrix(1 0 0 1 891.0881 93)" font-family="'ArialNarrow-Bold'" font-size="22">SEGMENTATION</text>
<circle fill="#606060" stroke="#FFFFFF" cx="870" cy="156" r="16.02"/>
<text id="text23_16_" transform="matrix(1 0 0 1 886.0188 156)" font-family="'ArialNarrow-Bold'" font-size="22">HMM</text>
<circle fill="#606060" stroke="#FFFFFF" cx="870" cy="219" r="12"/>
<text id="text23_17_" transform="matrix(1 0 0 1 882.0002 219)" enable-background="new    "><tspan x="0" y="0" font-family="'ArialNarrow-Bold'" font-size="22">NUMERAL </tspan><tspan x="0" y="26.4" font-family="'ArialNarrow-Bold'" font-size="22">RECOGNITION</tspan></text>
<circle fill="#606060" stroke="#FFFFFF" cx="870" cy="282" r="9.307"/>
<text id="text23_18_" transform="matrix(1 0 0 1 879.3069 282)" enable-background="new    "><tspan x="0" y="0" font-family="'ArialNarrow-Bold'" font-size="22">SIGNATURE </tspan><tspan x="0" y="26.4" font-family="'ArialNarrow-Bold'" font-size="22">VERIFICATION</tspan></text>
<circle fill="#606060" stroke="#FFFFFF" cx="870" cy="345" r="6.76"/>
<text id="text23_19_" transform="matrix(1 0 0 1 876.76 345)" enable-background="new    "><tspan x="0" y="0" font-family="'ArialNarrow-Bold'" font-size="22">SCRIPT </tspan><tspan x="0" y="26.4" font-family="'ArialNarrow-Bold'" font-size="22">IDENTIFICATION</tspan></text>
<circle fill="#606060" stroke="#FFFFFF" cx="870" cy="408" r="6.881"/>
<text id="text23_20_" transform="matrix(1 0 0 1 876.8801 408)" enable-background="new    "><tspan x="0" y="0" font-family="'ArialNarrow-Bold'" font-size="22">HISTORICAL</tspan><tspan x="0" y="26.4" font-family="'ArialNarrow-Bold'" font-size="22">DOCUMENTS</tspan></text>
<circle fill="#606060" stroke="#FFFFFF" cx="870" cy="471" r="7.292"/>
<text id="text23_21_" transform="matrix(1 0 0 1 882.0002 456.4746)" enable-background="new    "><tspan x="0" y="0" font-family="'ArialNarrow-Bold'" font-size="22">CHINESE </tspan><tspan x="0" y="26.4" font-family="'ArialNarrow-Bold'" font-size="22">CHARACTER </tspan><tspan x="0" y="52.8" font-family="'ArialNarrow-Bold'" font-size="22">RECOGNITION</tspan></text>
<line opacity="0.25" fill="none" stroke="#000000" stroke-width="11.25" x1="680.072" y1="30" x2="844.688" y2="30"/>
<line opacity="0.25" fill="none" stroke="#000000" stroke-width="3.75" x1="680.072" y1="30" x2="857.999" y2="219"/>
<line opacity="0.25" fill="none" stroke="#000000" stroke-width="1.25" stroke-dasharray="27,15" x1="677.766" y1="157" x2="844.688" y2="30"/>
<line opacity="0.25" fill="none" stroke="#000000" stroke-width="2.5" stroke-dasharray="27,15" x1="677.766" y1="157" x2="848.91" y2="93"/>
<line opacity="0.25" fill="none" stroke="#000000" stroke-width="5" x1="677.766" y1="157" x2="853.981" y2="156"/>
<line opacity="0.25" fill="none" stroke="#000000" stroke-width="1.25" stroke-dasharray="27,15" x1="677.766" y1="157" x2="857.999" y2="219"/>
<line opacity="0.25" fill="none" stroke="#000000" stroke-width="2.1429" stroke-dasharray="27,15" x1="677.766" y1="157" x2="860.694" y2="282"/>
<line opacity="0.25" fill="none" stroke="#000000" stroke-width="3.75" stroke-dasharray="27,15" x1="677.766" y1="157" x2="863.24" y2="345"/>
<line opacity="0.25" fill="none" stroke="#000000" stroke-width="5" stroke-dasharray="27,15" x1="677.766" y1="157" x2="863.119" y2="408"/>
<line opacity="0.25" fill="none" stroke="#000000" stroke-width="1.5" stroke-dasharray="27,15" x1="669.872" y1="284" x2="844.688" y2="30"/>
<line opacity="0.25" fill="none" stroke="#000000" stroke-width="6" stroke-dasharray="27,15" x1="669.872" y1="284" x2="848.91" y2="93"/>
<line opacity="0.25" fill="none" stroke="#000000" stroke-width="2.1429" stroke-dasharray="27,15" x1="669.872" y1="284" x2="860.694" y2="282"/>
<line opacity="0.25" fill="none" stroke="#000000" stroke-width="5" x1="669.872" y1="284" x2="862.707" y2="471"/>
<line opacity="0.25" fill="none" stroke="#000000" stroke-width="2.5" x1="668.245" y1="411" x2="848.91" y2="93"/>
<line opacity="0.25" fill="none" stroke="#000000" stroke-width="7.5" x1="668.245" y1="411" x2="860.694" y2="282"/>
<line opacity="0.25" fill="none" stroke="#000000" stroke-width="7.5" x1="668.245" y1="411" x2="863.24" y2="345"/>
<circle fill="#606060" stroke="#FFFFFF" cx="1080" cy="30" r="23.247"/>
<text id="text23_22_" transform="matrix(1 0 0 1 1104.3479 30)" font-family="'ArialNarrow-Bold'" font-size="22">DNN</text>
<circle fill="#606060" stroke="#FFFFFF" cx="1080" cy="102" r="17.167"/>
<text id="text23_23_" transform="matrix(1 0 0 1 1097.1663 102)" font-family="'ArialNarrow-Bold'" font-size="22">SVM</text>
<circle fill="#606060" stroke="#FFFFFF" cx="1080" cy="174" r="11.619"/>
<text id="text23_24_" transform="matrix(1 0 0 1 1091.6184 174)" font-family="'ArialNarrow-Bold'" font-size="22">SEGMENTATION</text>
<circle fill="#606060" stroke="#FFFFFF" cx="1080" cy="246" r="11.947"/>
<text id="text23_25_" transform="matrix(1 0 0 1 1091.9465 246)" enable-background="new    "><tspan x="0" y="0" font-family="'ArialNarrow-Bold'" font-size="22">ENSEMBLE </tspan><tspan x="0" y="26.4" font-family="'ArialNarrow-Bold'" font-size="22">CLASSIFICATION</tspan></text>
<circle fill="#606060" stroke="#FFFFFF" cx="1080" cy="318" r="7.697"/>
<text id="text23_26_" transform="matrix(1 0 0 1 1087.6975 318)" font-family="'ArialNarrow-Bold'" font-size="22">HMM</text>
<circle fill="#606060" stroke="#FFFFFF" cx="1080" cy="390" r="7.226"/>
<text id="text23_27_" transform="matrix(1 0 0 1 1087.2249 390)" enable-background="new    "><tspan x="0" y="0" font-family="'ArialNarrow-Bold'" font-size="22">WRITER </tspan><tspan x="0" y="26.4" font-family="'ArialNarrow-Bold'" font-size="22">IDENTIFICATION</tspan></text>
<circle fill="#606060" stroke="#FFFFFF" cx="1080" cy="462" r="5.525"/>
<text id="text23_28_" transform="matrix(1 0 0 1 1085.5256 462)" enable-background="new    "><tspan x="0" y="0" font-family="'ArialNarrow-Bold'" font-size="22">ATTENTION </tspan><tspan x="0" y="26.4" font-family="'ArialNarrow-Bold'" font-size="22">MECHANISM</tspan></text>
<line opacity="0.25" fill="none" stroke="#000000" stroke-width="2.5" x1="895.312" y1="30" x2="1056.752" y2="30"/>
<line opacity="0.25" fill="none" stroke="#000000" stroke-width="7.5" x1="895.312" y1="30" x2="1062.832" y2="102"/>
<line opacity="0.25" fill="none" stroke="#000000" stroke-width="1.25" stroke-dasharray="27,15" x1="895.312" y1="30" x2="1068.381" y2="174"/>
<line opacity="0.25" fill="none" stroke="#000000" stroke-width="1.25" stroke-dasharray="27,15" x1="895.312" y1="30" x2="1068.053" y2="246"/>
<line opacity="0.25" fill="none" stroke="#000000" stroke-width="1.875" stroke-dasharray="27,15" x1="895.312" y1="30" x2="1072.775" y2="390"/>
<line opacity="0.25" fill="none" stroke="#000000" stroke-width="1.25" stroke-dasharray="27,15" x1="891.088" y1="93" x2="1056.752" y2="30"/>
<line opacity="0.25" fill="none" stroke="#000000" stroke-width="6.25" x1="891.088" y1="93" x2="1068.381" y2="174"/>
<line opacity="0.25" fill="none" stroke="#000000" stroke-width="3.75" stroke-dasharray="27,15" x1="891.088" y1="93" x2="1068.053" y2="246"/>
<line opacity="0.25" fill="none" stroke="#000000" stroke-width="2.5" stroke-dasharray="27,15" x1="886.019" y1="156" x2="1056.752" y2="30"/>
<line opacity="0.25" fill="none" stroke="#000000" stroke-width="2.5" stroke-dasharray="27,15" x1="886.019" y1="156" x2="1068.381" y2="174"/>
<line opacity="0.25" fill="none" stroke="#000000" stroke-width="7.5" x1="886.019" y1="156" x2="1072.303" y2="318"/>
<line opacity="0.25" fill="none" stroke="#000000" stroke-width="2.5" x1="882" y1="219" x2="1056.752" y2="30"/>
<line opacity="0.25" fill="none" stroke="#000000" stroke-width="2.5" stroke-dasharray="27,15" x1="882" y1="219" x2="1062.832" y2="102"/>
<line opacity="0.25" fill="none" stroke="#000000" stroke-width="1.25" stroke-dasharray="27,15" x1="882" y1="219" x2="1068.053" y2="246"/>
<line opacity="0.25" fill="none" stroke="#000000" stroke-width="1.875" stroke-dasharray="27,15" x1="882" y1="219" x2="1072.775" y2="390"/>
<line opacity="0.25" fill="none" stroke="#000000" stroke-width="2.1429" x1="879.307" y1="282" x2="1062.832" y2="102"/>
<line opacity="0.25" fill="none" stroke="#000000" stroke-width="4.2857" stroke-dasharray="27,15" x1="879.307" y1="282" x2="1068.053" y2="246"/>
<line opacity="0.25" fill="none" stroke="#000000" stroke-width="4.2857" x1="879.307" y1="282" x2="1072.775" y2="390"/>
<line opacity="0.25" fill="none" stroke="#000000" stroke-width="3.75" stroke-dasharray="27,15" x1="879.38" y1="342" x2="1065.452" y2="99"/>
<line opacity="0.25" fill="none" stroke="#000000" stroke-width="7.5" x1="876.76" y1="345" x2="1068.053" y2="246"/>
<line opacity="0.25" fill="none" stroke="#000000" stroke-width="3.75" stroke-dasharray="27,15" x1="876.76" y1="345" x2="1072.303" y2="318"/>
<line fill="none" x1="876.88" y1="408" x2="1068.381" y2="174"/>
<g opacity="0.25">
</g>
<line opacity="0.25" fill="none" stroke="#000000" stroke-width="5" stroke-dasharray="27,15" x1="876.88" y1="408" x2="1072.303" y2="318"/>
<line opacity="0.25" fill="none" stroke="#000000" stroke-width="5" stroke-dasharray="27,15" x1="877.292" y1="471" x2="1056.752" y2="30"/>
<line opacity="0.25" fill="none" stroke="#000000" stroke-width="5" x1="877.292" y1="471" x2="1068.053" y2="246"/>
</svg>
