<?xml version="1.0" encoding="UTF-8"?>
<svg xmlns:xlink="http://www.w3.org/1999/xlink" xmlns="http://www.w3.org/2000/svg" contentScriptType="text/ecmascript" width="1260" zoomAndPan="magnify" contentStyleType="text/css" height="449" preserveAspectRatio="xMidYMid meet" version="1.0">
<radialGradient xlink:actuate="onLoad" xlink:type="simple" id="sphereTheme" xlink:show="other" xmlns:xlink="http://www.w3.org/1999/xlink">
<stop style="stop-color:#C6DD3A" offset="0"/>
<stop style="stop-color:#C3DA39" offset="0.211"/>
<stop style="stop-color:#B8CF37" offset="0.3881"/>
<stop style="stop-color:#A7BE34" offset="0.5529"/>
<stop style="stop-color:#8EA630" offset="0.7103"/>
<stop style="stop-color:#6F872A" offset="0.861"/>
<stop style="stop-color:#4B6323" offset="1"/>
</radialGradient>
<circle fill="url(#sphereTheme)" r="5.944639718804921" cx="30" cy="30"/>
<text x="35.94463971880492" y="30" id="text23" style="font-size:10px;text-anchor:start;fill:#000000;font-family:Verdana">CHARACTER RECOGNITION</text>
<circle fill="url(#sphereTheme)" r="5.30755711775044" cx="30" cy="254"/>
<text x="35.30755711775044" y="254" id="text23" style="font-size:10px;text-anchor:start;fill:#000000;font-family:Verdana">TEXT RECOGNITION</text>
<circle fill="url(#sphereTheme)" r="8.558875219683657" cx="240" cy="30"/>
<text x="248.55887521968367" y="30" id="text23" style="font-size:10px;text-anchor:start;fill:#000000;font-family:Verdana">CHARACTER RECOGNITION</text>
<circle fill="url(#sphereTheme)" r="6.64762741652021" cx="240" cy="119"/>
<text x="246.6476274165202" y="119" id="text23" style="font-size:10px;text-anchor:start;fill:#000000;font-family:Verdana">NUMERAL RECOGNITION</text>
<circle fill="url(#sphereTheme)" r="5.9007029876977155" cx="240" cy="208"/>
<text x="245.9007029876977" y="208" id="text23" style="font-size:10px;text-anchor:start;fill:#000000;font-family:Verdana">CHINESE CHARACTER RECOGNITION</text>
<circle fill="url(#sphereTheme)" r="5.593145869947276" cx="240" cy="297"/>
<text x="245.59314586994728" y="297" id="text23" style="font-size:10px;text-anchor:start;fill:#000000;font-family:Verdana">WORD SPOTTING</text>
<circle fill="url(#sphereTheme)" r="5.351493848857645" cx="240" cy="386"/>
<text x="245.35149384885764" y="386" id="text23" style="font-size:10px;text-anchor:start;fill:#000000;font-family:Verdana">DIGIT RECOGNITION</text>
<line y2="30.0" stroke-width="2.5" x1="35.94463971880492" x2="231.44112478031633" stroke="black" y1="30.0"/>
<line y2="119.0" stroke-width="1.4285714285714284" x1="35.94463971880492" x2="233.3523725834798" stroke="black" y1="30.0"/>
<line x1="35.94463971880492" x2="234.0992970123023" y1="30.0" style="stroke-dasharray: 9, 5" y2="208.0" stroke="black" stroke-width="2.5"/>
<line x1="35.30755711775044" x2="231.44112478031633" y1="254.0" style="stroke-dasharray: 9, 5" y2="30.0" stroke="black" stroke-width="1.6666666666666665"/>
<line x1="35.30755711775044" x2="233.3523725834798" y1="254.0" style="stroke-dasharray: 9, 5" y2="119.0" stroke="black" stroke-width="1.6666666666666665"/>
<line y2="297.0" stroke-width="1.6666666666666665" x1="35.30755711775044" x2="234.40685413005272" stroke="black" y1="254.0"/>
<circle fill="url(#sphereTheme)" r="7.680140597539543" cx="450" cy="30"/>
<text x="457.68014059753955" y="30" id="text23" style="font-size:10px;text-anchor:start;fill:#000000;font-family:Verdana">HMM</text>
<circle fill="url(#sphereTheme)" r="8.60281195079086" cx="450" cy="119"/>
<text x="458.60281195079085" y="119" id="text23" style="font-size:10px;text-anchor:start;fill:#000000;font-family:Verdana">CHARACTER RECOGNITION</text>
<circle fill="url(#sphereTheme)" r="6.296133567662566" cx="450" cy="208"/>
<text x="456.2961335676626" y="208" id="text23" style="font-size:10px;text-anchor:start;fill:#000000;font-family:Verdana">CHINESE CHARACTER RECOGNITION</text>
<circle fill="url(#sphereTheme)" r="6.384007029876978" cx="450" cy="297"/>
<text x="456.38400702987695" y="297" id="text23" style="font-size:10px;text-anchor:start;fill:#000000;font-family:Verdana">NUMERAL RECOGNITION</text>
<circle fill="url(#sphereTheme)" r="5.505272407732865" cx="450" cy="386"/>
<text x="455.5052724077329" y="386" id="text23" style="font-size:10px;text-anchor:start;fill:#000000;font-family:Verdana">WRITER IDENTIFICATION</text>
<line y2="30.0" stroke-width="0.8333333333333333" x1="248.55887521968367" x2="442.31985940246045" stroke="black" y1="30.0"/>
<line y2="119.0" stroke-width="3.333333333333333" x1="248.55887521968367" x2="441.39718804920915" stroke="black" y1="30.0"/>
<line x1="246.6476274165202" x2="442.31985940246045" y1="119.0" style="stroke-dasharray: 9, 5" y2="30.0" stroke="black" stroke-width="0.7142857142857142"/>
<line x1="246.6476274165202" x2="441.39718804920915" y1="119.0" style="stroke-dasharray: 9, 5" y2="119.0" stroke="black" stroke-width="1.4285714285714284"/>
<line x1="246.6476274165202" x2="443.7038664323374" y1="119.0" style="stroke-dasharray: 9, 5" y2="208.0" stroke="black" stroke-width="0.7142857142857142"/>
<line y2="297.0" stroke-width="3.0" x1="246.6476274165202" x2="443.61599297012305" stroke="black" y1="119.0"/>
<line x1="245.9007029876977" x2="442.31985940246045" y1="208.0" style="stroke-dasharray: 9, 5" y2="30.0" stroke="black" stroke-width="1.25"/>
<line x1="245.9007029876977" x2="441.39718804920915" y1="208.0" style="stroke-dasharray: 9, 5" y2="119.0" stroke="black" stroke-width="1.25"/>
<line y2="208.0" stroke-width="1.25" x1="245.9007029876977" x2="443.7038664323374" stroke="black" y1="208.0"/>
<line x1="245.59314586994728" x2="442.31985940246045" y1="297.0" style="stroke-dasharray: 9, 5" y2="30.0" stroke="black" stroke-width="1.6666666666666665"/>
<line x1="245.35149384885764" x2="442.31985940246045" y1="386.0" style="stroke-dasharray: 9, 5" y2="30.0" stroke="black" stroke-width="1.6666666666666665"/>
<line y2="297.0" stroke-width="1.6666666666666665" x1="245.35149384885764" x2="443.61599297012305" stroke="black" y1="386.0"/>
<circle fill="url(#sphereTheme)" r="10.579964850615113" cx="660" cy="30"/>
<text x="670.5799648506152" y="30" id="text23" style="font-size:10px;text-anchor:start;fill:#000000;font-family:Verdana">SVM</text>
<circle fill="url(#sphereTheme)" r="9.349736379613358" cx="660" cy="142"/>
<text x="669.3497363796133" y="142" id="text23" style="font-size:10px;text-anchor:start;fill:#000000;font-family:Verdana">HMM</text>
<circle fill="url(#sphereTheme)" r="9.52548330404218" cx="660" cy="254"/>
<text x="669.5254833040422" y="254" id="text23" style="font-size:10px;text-anchor:start;fill:#000000;font-family:Verdana">SEGMENTATION</text>
<circle fill="url(#sphereTheme)" r="6.208260105448154" cx="660" cy="366"/>
<text x="666.2082601054482" y="366" id="text23" style="font-size:10px;text-anchor:start;fill:#000000;font-family:Verdana">SIGNATUR VERIFICATION</text>
<line x1="457.68014059753955" x2="649.4200351493848" y1="30.0" style="stroke-dasharray: 9, 5" y2="30.0" stroke="black" stroke-width="0.8333333333333333"/>
<line y2="142.0" stroke-width="2.916666666666667" x1="457.68014059753955" x2="650.6502636203867" stroke="black" y1="30.0"/>
<line x1="457.68014059753955" x2="650.4745166959578" y1="30.0" style="stroke-dasharray: 9, 5" y2="254.0" stroke="black" stroke-width="0.4545454545454546"/>
<line y2="30.0" stroke-width="1.25" x1="458.60281195079085" x2="649.4200351493848" stroke="black" y1="119.0"/>
<line x1="458.60281195079085" x2="650.6502636203867" y1="119.0" style="stroke-dasharray: 9, 5" y2="142.0" stroke="black" stroke-width="0.8333333333333333"/>
<line y2="254.0" stroke-width="1.8181818181818183" x1="458.60281195079085" x2="650.4745166959578" stroke="black" y1="119.0"/>
<line y2="30.0" stroke-width="1.25" x1="456.2961335676626" x2="649.4200351493848" stroke="black" y1="208.0"/>
<line x1="456.2961335676626" x2="653.7917398945518" y1="208.0" style="stroke-dasharray: 9, 5" y2="366.0" stroke="black" stroke-width="1.0"/>
<line x1="456.38400702987695" x2="649.4200351493848" y1="297.0" style="stroke-dasharray: 9, 5" y2="30.0" stroke="black" stroke-width="1.0"/>
<line y2="254.0" stroke-width="1.0" x1="456.38400702987695" x2="650.4745166959578" stroke="black" y1="297.0"/>
<line y2="254.0" stroke-width="1.25" x1="455.5052724077329" x2="650.4745166959578" stroke="black" y1="386.0"/>
<line y2="366.0" stroke-width="2.5" x1="455.5052724077329" x2="653.7917398945518" stroke="black" y1="386.0"/>
<circle fill="url(#sphereTheme)" r="18.884007029876976" cx="870" cy="30"/>
<text x="888.884007029877" y="30" id="text23" style="font-size:10px;text-anchor:start;fill:#000000;font-family:Verdana">CHARACTER RECOGNITION</text>
<circle fill="url(#sphereTheme)" r="13.479789103690685" cx="870" cy="94"/>
<text x="883.4797891036907" y="94" id="text23" style="font-size:10px;text-anchor:start;fill:#000000;font-family:Verdana">SEGMENTATION</text>
<circle fill="url(#sphereTheme)" r="9.811072056239016" cx="870" cy="158"/>
<text x="879.811072056239" y="158" id="text23" style="font-size:10px;text-anchor:start;fill:#000000;font-family:Verdana">HMM</text>
<circle fill="url(#sphereTheme)" r="11.41476274165202" cx="870" cy="222"/>
<text x="881.414762741652" y="222" id="text23" style="font-size:10px;text-anchor:start;fill:#000000;font-family:Verdana">CLASSIFICATION</text>
<circle fill="url(#sphereTheme)" r="6.735500878734622" cx="870" cy="286"/>
<text x="876.7355008787346" y="286" id="text23" style="font-size:10px;text-anchor:start;fill:#000000;font-family:Verdana">WRITER IDENTIFICATION</text>
<circle fill="url(#sphereTheme)" r="6.603690685413005" cx="870" cy="350"/>
<text x="876.603690685413" y="350" id="text23" style="font-size:10px;text-anchor:start;fill:#000000;font-family:Verdana">MLP</text>
<circle fill="url(#sphereTheme)" r="6.25219683655536" cx="870" cy="414"/>
<text x="876.2521968365554" y="414" id="text23" style="font-size:10px;text-anchor:start;fill:#000000;font-family:Verdana">HISTORICAL-DOCUMENTS</text>
<line y2="30.0" stroke-width="2.5" x1="670.5799648506152" x2="851.115992970123" stroke="black" y1="30.0"/>
<line y2="222.0" stroke-width="1.6666666666666665" x1="670.5799648506152" x2="858.585237258348" stroke="black" y1="30.0"/>
<line x1="670.5799648506152" x2="863.2644991212654" y1="30.0" style="stroke-dasharray: 9, 5" y2="286.0" stroke="black" stroke-width="1.0"/>
<line x1="669.3497363796133" x2="851.115992970123" y1="142.0" style="stroke-dasharray: 9, 5" y2="30.0" stroke="black" stroke-width="0.41666666666666663"/>
<line x1="669.3497363796133" x2="856.5202108963093" y1="142.0" style="stroke-dasharray: 9, 5" y2="94.0" stroke="black" stroke-width="0.8333333333333333"/>
<line y2="158.0" stroke-width="1.6666666666666665" x1="669.3497363796133" x2="860.188927943761" stroke="black" y1="142.0"/>
<line x1="669.3497363796133" x2="858.585237258348" y1="142.0" style="stroke-dasharray: 9, 5" y2="222.0" stroke="black" stroke-width="0.41666666666666663"/>
<line x1="669.3497363796133" x2="863.396309314587" y1="142.0" style="stroke-dasharray: 9, 5" y2="350.0" stroke="black" stroke-width="1.25"/>
<line x1="669.3497363796133" x2="863.7478031634446" y1="142.0" style="stroke-dasharray: 9, 5" y2="414.0" stroke="black" stroke-width="1.6666666666666665"/>
<line x1="669.5254833040422" x2="851.115992970123" y1="254.0" style="stroke-dasharray: 9, 5" y2="30.0" stroke="black" stroke-width="0.9090909090909092"/>
<line y2="94.0" stroke-width="0.9090909090909092" x1="669.5254833040422" x2="856.5202108963093" stroke="black" y1="254.0"/>
<line x1="669.5254833040422" x2="858.585237258348" y1="254.0" style="stroke-dasharray: 9, 5" y2="222.0" stroke="black" stroke-width="0.9090909090909092"/>
<line y2="286.0" stroke-width="1.0" x1="669.5254833040422" x2="863.2644991212654" stroke="black" y1="254.0"/>
<line x1="669.5254833040422" x2="863.396309314587" y1="254.0" style="stroke-dasharray: 9, 5" y2="350.0" stroke="black" stroke-width="1.25"/>
<line y2="414.0" stroke-width="1.6666666666666665" x1="669.5254833040422" x2="863.7478031634446" stroke="black" y1="254.0"/>
<line x1="666.2082601054482" x2="851.115992970123" y1="366.0" style="stroke-dasharray: 9, 5" y2="30.0" stroke="black" stroke-width="2.0"/>
<line y2="222.0" stroke-width="1.0" x1="666.2082601054482" x2="858.585237258348" stroke="black" y1="366.0"/>
<circle fill="url(#sphereTheme)" r="30.0" cx="1080" cy="30"/>
<text x="1110.0" y="30" id="text23" style="font-size:10px;text-anchor:start;fill:#000000;font-family:Verdana">DNN</text>
<circle fill="url(#sphereTheme)" r="24.81546572934974" cx="1080" cy="94"/>
<text x="1104.8154657293499" y="94" id="text23" style="font-size:10px;text-anchor:start;fill:#000000;font-family:Verdana">SVM</text>
<circle fill="url(#sphereTheme)" r="14.995606326889279" cx="1080" cy="158"/>
<text x="1094.9956063268892" y="158" id="text23" style="font-size:10px;text-anchor:start;fill:#000000;font-family:Verdana">SEGMENTATION</text>
<circle fill="url(#sphereTheme)" r="13.326010544815466" cx="1080" cy="222"/>
<text x="1093.3260105448155" y="222" id="text23" style="font-size:10px;text-anchor:start;fill:#000000;font-family:Verdana">ENSEMBLE CLASSIFICATION</text>
<circle fill="url(#sphereTheme)" r="8.624780316344465" cx="1080" cy="286"/>
<text x="1088.6247803163444" y="286" id="text23" style="font-size:10px;text-anchor:start;fill:#000000;font-family:Verdana">HMM</text>
<circle fill="url(#sphereTheme)" r="8.405096660808436" cx="1080" cy="350"/>
<text x="1088.4050966608083" y="350" id="text23" style="font-size:10px;text-anchor:start;fill:#000000;font-family:Verdana">WRITER IDENTIFICATION</text>
<circle fill="url(#sphereTheme)" r="8.097539543057996" cx="1080" cy="414"/>
<text x="1088.097539543058" y="414" id="text23" style="font-size:10px;text-anchor:start;fill:#000000;font-family:Verdana">NUMERAL RECOGNITION</text>
<line y2="30.0" stroke-width="0.8333333333333333" x1="888.884007029877" x2="1050.0" stroke="black" y1="30.0"/>
<line y2="94.0" stroke-width="2.5" x1="888.884007029877" x2="1055.1845342706501" stroke="black" y1="30.0"/>
<line x1="888.884007029877" x2="1065.0043936731108" y1="30.0" style="stroke-dasharray: 9, 5" y2="158.0" stroke="black" stroke-width="0.41666666666666663"/>
<line x1="888.884007029877" x2="1066.6739894551845" y1="30.0" style="stroke-dasharray: 9, 5" y2="222.0" stroke="black" stroke-width="0.41666666666666663"/>
<line x1="888.884007029877" x2="1071.5949033391917" y1="30.0" style="stroke-dasharray: 9, 5" y2="350.0" stroke="black" stroke-width="0.625"/>
<line x1="883.4797891036907" x2="1050.0" y1="94.0" style="stroke-dasharray: 9, 5" y2="30.0" stroke="black" stroke-width="0.41666666666666663"/>
<line y2="158.0" stroke-width="2.0833333333333335" x1="883.4797891036907" x2="1065.0043936731108" stroke="black" y1="94.0"/>
<line x1="883.4797891036907" x2="1066.6739894551845" y1="94.0" style="stroke-dasharray: 9, 5" y2="222.0" stroke="black" stroke-width="1.25"/>
<line x1="879.811072056239" x2="1050.0" y1="158.0" style="stroke-dasharray: 9, 5" y2="30.0" stroke="black" stroke-width="0.8333333333333333"/>
<line x1="879.811072056239" x2="1065.0043936731108" y1="158.0" style="stroke-dasharray: 9, 5" y2="158.0" stroke="black" stroke-width="0.8333333333333333"/>
<line y2="286.0" stroke-width="2.5" x1="879.811072056239" x2="1071.3752196836556" stroke="black" y1="158.0"/>
<line x1="881.414762741652" x2="1050.0" y1="222.0" style="stroke-dasharray: 9, 5" y2="30.0" stroke="black" stroke-width="0.41666666666666663"/>
<line y2="94.0" stroke-width="1.25" x1="881.414762741652" x2="1055.1845342706501" stroke="black" y1="222.0"/>
<line y2="222.0" stroke-width="1.6666666666666665" x1="881.414762741652" x2="1066.6739894551845" stroke="black" y1="222.0"/>
<line x1="876.7355008787346" x2="1055.1845342706501" y1="286.0" style="stroke-dasharray: 9, 5" y2="94.0" stroke="black" stroke-width="1.0"/>
<line x1="876.7355008787346" x2="1065.0043936731108" y1="286.0" style="stroke-dasharray: 9, 5" y2="158.0" stroke="black" stroke-width="1.0"/>
<line x1="876.7355008787346" x2="1066.6739894551845" y1="286.0" style="stroke-dasharray: 9, 5" y2="222.0" stroke="black" stroke-width="1.0"/>
<line y2="350.0" stroke-width="2.0" x1="876.7355008787346" x2="1071.5949033391917" stroke="black" y1="286.0"/>
<line x1="876.603690685413" x2="1066.6739894551845" y1="350.0" style="stroke-dasharray: 9, 5" y2="222.0" stroke="black" stroke-width="1.25"/>
<line y2="414.0" stroke-width="2.5" x1="876.603690685413" x2="1071.902460456942" stroke="black" y1="350.0"/>
<line y2="158.0" stroke-width="1.6666666666666665" x1="876.2521968365554" x2="1065.0043936731108" stroke="black" y1="414.0"/>
<line x1="876.2521968365554" x2="1071.3752196836556" y1="414.0" style="stroke-dasharray: 9, 5" y2="286.0" stroke="black" stroke-width="1.6666666666666665"/>
</svg>

