<?xml version="1.0" encoding="UTF-8"?>
<svg xmlns:xlink="http://www.w3.org/1999/xlink" xmlns="http://www.w3.org/2000/svg" contentScriptType="text/ecmascript" width="1260" zoomAndPan="magnify" contentStyleType="text/css" height="449" preserveAspectRatio="xMidYMid meet" version="1.0">
<radialGradient xlink:actuate="onLoad" xlink:type="simple" id="sphereTheme" xlink:show="other" xmlns:xlink="http://www.w3.org/1999/xlink">
<stop style="stop-color:#C6DD3A" offset="0"/>
<stop style="stop-color:#C3DA39" offset="0.211"/>
<stop style="stop-color:#B8CF37" offset="0.3881"/>
<stop style="stop-color:#A7BE34" offset="0.5529"/>
<stop style="stop-color:#8EA630" offset="0.7103"/>
<stop style="stop-color:#6F872A" offset="0.861"/>
<stop style="stop-color:#4B6323" offset="1"/>
</radialGradient>
<circle fill="url(#sphereTheme)" r="22.0" cx="30" cy="30"/>
<text x="52.0" y="30" id="text23" style="font-size:10px;text-anchor:start;fill:#000000;font-family:Verdana">CHARACTER RECOGNITION</text>
<circle fill="url(#sphereTheme)" r="8.0" cx="30" cy="254"/>
<text x="38.0" y="254" id="text23" style="font-size:10px;text-anchor:start;fill:#000000;font-family:Verdana">TEXT RECOGNITION</text>
<circle fill="url(#sphereTheme)" r="30.0" cx="240" cy="30"/>
<text x="270.0" y="30" id="text23" style="font-size:10px;text-anchor:start;fill:#000000;font-family:Verdana">CHARACTER RECOGNITION</text>
<circle fill="url(#sphereTheme)" r="14.0" cx="240" cy="119"/>
<text x="254.0" y="119" id="text23" style="font-size:10px;text-anchor:start;fill:#000000;font-family:Verdana">NUMERAL RECOGNITION</text>
<circle fill="url(#sphereTheme)" r="12.0" cx="240" cy="208"/>
<text x="252.0" y="208" id="text23" style="font-size:10px;text-anchor:start;fill:#000000;font-family:Verdana">CHINESE CHARACTER RECOGNITION</text>
<circle fill="url(#sphereTheme)" r="7.0" cx="240" cy="297"/>
<text x="247.0" y="297" id="text23" style="font-size:10px;text-anchor:start;fill:#000000;font-family:Verdana">WORD SPOTTING</text>
<circle fill="url(#sphereTheme)" r="8.0" cx="240" cy="386"/>
<text x="248.0" y="386" id="text23" style="font-size:10px;text-anchor:start;fill:#000000;font-family:Verdana">DIGIT RECOGNITION</text>
<line y2="30.0" stroke-width="2.5" x1="52.0" x2="210.0" stroke="black" y1="30.0"/>
<line y2="119.0" stroke-width="1.4285714285714284" x1="52.0" x2="226.0" stroke="black" y1="30.0"/>
<line x1="52.0" x2="228.0" y1="30.0" style="stroke-dasharray: 9, 5" y2="208.0" stroke="black" stroke-width="2.5"/>
<line x1="38.0" x2="210.0" y1="254.0" style="stroke-dasharray: 9, 5" y2="30.0" stroke="black" stroke-width="1.6666666666666665"/>
<line x1="38.0" x2="226.0" y1="254.0" style="stroke-dasharray: 9, 5" y2="119.0" stroke="black" stroke-width="1.6666666666666665"/>
<line y2="297.0" stroke-width="1.6666666666666665" x1="38.0" x2="233.0" stroke="black" y1="254.0"/>
<circle fill="url(#sphereTheme)" r="25.0" cx="450" cy="30"/>
<text x="475.0" y="30" id="text23" style="font-size:10px;text-anchor:start;fill:#000000;font-family:Verdana">HMM</text>
<circle fill="url(#sphereTheme)" r="28.0" cx="450" cy="119"/>
<text x="478.0" y="119" id="text23" style="font-size:10px;text-anchor:start;fill:#000000;font-family:Verdana">CHARACTER RECOGNITION</text>
<circle fill="url(#sphereTheme)" r="11.0" cx="450" cy="208"/>
<text x="461.0" y="208" id="text23" style="font-size:10px;text-anchor:start;fill:#000000;font-family:Verdana">CHINESE CHARACTER RECOGNITION</text>
<circle fill="url(#sphereTheme)" r="10.0" cx="450" cy="297"/>
<text x="460.0" y="297" id="text23" style="font-size:10px;text-anchor:start;fill:#000000;font-family:Verdana">NUMERAL RECOGNITION</text>
<circle fill="url(#sphereTheme)" r="8.0" cx="450" cy="386"/>
<text x="458.0" y="386" id="text23" style="font-size:10px;text-anchor:start;fill:#000000;font-family:Verdana">WRITER IDENTIFICATION</text>
<line y2="30.0" stroke-width="0.8333333333333333" x1="270.0" x2="425.0" stroke="black" y1="30.0"/>
<line y2="119.0" stroke-width="3.333333333333333" x1="270.0" x2="422.0" stroke="black" y1="30.0"/>
<line x1="254.0" x2="425.0" y1="119.0" style="stroke-dasharray: 9, 5" y2="30.0" stroke="black" stroke-width="0.7142857142857142"/>
<line x1="254.0" x2="422.0" y1="119.0" style="stroke-dasharray: 9, 5" y2="119.0" stroke="black" stroke-width="1.4285714285714284"/>
<line x1="254.0" x2="439.0" y1="119.0" style="stroke-dasharray: 9, 5" y2="208.0" stroke="black" stroke-width="0.7142857142857142"/>
<line y2="297.0" stroke-width="3.0" x1="254.0" x2="440.0" stroke="black" y1="119.0"/>
<line x1="252.0" x2="425.0" y1="208.0" style="stroke-dasharray: 9, 5" y2="30.0" stroke="black" stroke-width="1.25"/>
<line x1="252.0" x2="422.0" y1="208.0" style="stroke-dasharray: 9, 5" y2="119.0" stroke="black" stroke-width="1.25"/>
<line y2="208.0" stroke-width="1.25" x1="252.0" x2="439.0" stroke="black" y1="208.0"/>
<line x1="247.0" x2="425.0" y1="297.0" style="stroke-dasharray: 9, 5" y2="30.0" stroke="black" stroke-width="1.6666666666666665"/>
<line x1="248.0" x2="425.0" y1="386.0" style="stroke-dasharray: 9, 5" y2="30.0" stroke="black" stroke-width="1.6666666666666665"/>
<line y2="297.0" stroke-width="1.6666666666666665" x1="248.0" x2="440.0" stroke="black" y1="386.0"/>
<circle fill="url(#sphereTheme)" r="24.0" cx="660" cy="30"/>
<text x="684.0" y="30" id="text23" style="font-size:10px;text-anchor:start;fill:#000000;font-family:Verdana">SVM</text>
<circle fill="url(#sphereTheme)" r="22.0" cx="660" cy="142"/>
<text x="682.0" y="142" id="text23" style="font-size:10px;text-anchor:start;fill:#000000;font-family:Verdana">HMM</text>
<circle fill="url(#sphereTheme)" r="17.0" cx="660" cy="254"/>
<text x="677.0" y="254" id="text23" style="font-size:10px;text-anchor:start;fill:#000000;font-family:Verdana">SEGMENTATION</text>
<circle fill="url(#sphereTheme)" r="9.0" cx="660" cy="366"/>
<text x="669.0" y="366" id="text23" style="font-size:10px;text-anchor:start;fill:#000000;font-family:Verdana">SIGNATUR VERIFICATION</text>
<line x1="475.0" x2="636.0" y1="30.0" style="stroke-dasharray: 9, 5" y2="30.0" stroke="black" stroke-width="0.8333333333333333"/>
<line y2="142.0" stroke-width="2.916666666666667" x1="475.0" x2="638.0" stroke="black" y1="30.0"/>
<line x1="475.0" x2="643.0" y1="30.0" style="stroke-dasharray: 9, 5" y2="254.0" stroke="black" stroke-width="0.4545454545454546"/>
<line y2="30.0" stroke-width="1.25" x1="478.0" x2="636.0" stroke="black" y1="119.0"/>
<line x1="478.0" x2="638.0" y1="119.0" style="stroke-dasharray: 9, 5" y2="142.0" stroke="black" stroke-width="0.8333333333333333"/>
<line y2="254.0" stroke-width="1.8181818181818183" x1="478.0" x2="643.0" stroke="black" y1="119.0"/>
<line y2="30.0" stroke-width="1.25" x1="461.0" x2="636.0" stroke="black" y1="208.0"/>
<line x1="461.0" x2="651.0" y1="208.0" style="stroke-dasharray: 9, 5" y2="366.0" stroke="black" stroke-width="1.0"/>
<line x1="460.0" x2="636.0" y1="297.0" style="stroke-dasharray: 9, 5" y2="30.0" stroke="black" stroke-width="1.0"/>
<line y2="254.0" stroke-width="1.0" x1="460.0" x2="643.0" stroke="black" y1="297.0"/>
<line y2="254.0" stroke-width="1.25" x1="458.0" x2="643.0" stroke="black" y1="386.0"/>
<line y2="366.0" stroke-width="2.5" x1="458.0" x2="651.0" stroke="black" y1="386.0"/>
<circle fill="url(#sphereTheme)" r="29.0" cx="870" cy="30"/>
<text x="899.0" y="30" id="text23" style="font-size:10px;text-anchor:start;fill:#000000;font-family:Verdana">CHARACTER RECOGNITION</text>
<circle fill="url(#sphereTheme)" r="17.0" cx="870" cy="94"/>
<text x="887.0" y="94" id="text23" style="font-size:10px;text-anchor:start;fill:#000000;font-family:Verdana">SEGMENTATION</text>
<circle fill="url(#sphereTheme)" r="19.0" cx="870" cy="158"/>
<text x="889.0" y="158" id="text23" style="font-size:10px;text-anchor:start;fill:#000000;font-family:Verdana">HMM</text>
<circle fill="url(#sphereTheme)" r="16.0" cx="870" cy="222"/>
<text x="886.0" y="222" id="text23" style="font-size:10px;text-anchor:start;fill:#000000;font-family:Verdana">CLASSIFICATION</text>
<circle fill="url(#sphereTheme)" r="9.0" cx="870" cy="286"/>
<text x="879.0" y="286" id="text23" style="font-size:10px;text-anchor:start;fill:#000000;font-family:Verdana">WRITER IDENTIFICATION</text>
<circle fill="url(#sphereTheme)" r="9.0" cx="870" cy="350"/>
<text x="879.0" y="350" id="text23" style="font-size:10px;text-anchor:start;fill:#000000;font-family:Verdana">MLP</text>
<circle fill="url(#sphereTheme)" r="7.0" cx="870" cy="414"/>
<text x="877.0" y="414" id="text23" style="font-size:10px;text-anchor:start;fill:#000000;font-family:Verdana">HISTORICAL-DOCUMENTS</text>
<line y2="30.0" stroke-width="2.5" x1="684.0" x2="841.0" stroke="black" y1="30.0"/>
<line y2="222.0" stroke-width="1.6666666666666665" x1="684.0" x2="854.0" stroke="black" y1="30.0"/>
<line x1="684.0" x2="861.0" y1="30.0" style="stroke-dasharray: 9, 5" y2="286.0" stroke="black" stroke-width="1.0"/>
<line x1="682.0" x2="841.0" y1="142.0" style="stroke-dasharray: 9, 5" y2="30.0" stroke="black" stroke-width="0.41666666666666663"/>
<line x1="682.0" x2="853.0" y1="142.0" style="stroke-dasharray: 9, 5" y2="94.0" stroke="black" stroke-width="0.8333333333333333"/>
<line y2="158.0" stroke-width="1.6666666666666665" x1="682.0" x2="851.0" stroke="black" y1="142.0"/>
<line x1="682.0" x2="854.0" y1="142.0" style="stroke-dasharray: 9, 5" y2="222.0" stroke="black" stroke-width="0.41666666666666663"/>
<line x1="682.0" x2="861.0" y1="142.0" style="stroke-dasharray: 9, 5" y2="350.0" stroke="black" stroke-width="1.25"/>
<line x1="682.0" x2="863.0" y1="142.0" style="stroke-dasharray: 9, 5" y2="414.0" stroke="black" stroke-width="1.6666666666666665"/>
<line x1="677.0" x2="841.0" y1="254.0" style="stroke-dasharray: 9, 5" y2="30.0" stroke="black" stroke-width="0.9090909090909092"/>
<line y2="94.0" stroke-width="0.9090909090909092" x1="677.0" x2="853.0" stroke="black" y1="254.0"/>
<line x1="677.0" x2="854.0" y1="254.0" style="stroke-dasharray: 9, 5" y2="222.0" stroke="black" stroke-width="0.9090909090909092"/>
<line y2="286.0" stroke-width="1.0" x1="677.0" x2="861.0" stroke="black" y1="254.0"/>
<line x1="677.0" x2="861.0" y1="254.0" style="stroke-dasharray: 9, 5" y2="350.0" stroke="black" stroke-width="1.25"/>
<line y2="414.0" stroke-width="1.6666666666666665" x1="677.0" x2="863.0" stroke="black" y1="254.0"/>
<line x1="669.0" x2="841.0" y1="366.0" style="stroke-dasharray: 9, 5" y2="30.0" stroke="black" stroke-width="2.0"/>
<line y2="222.0" stroke-width="1.0" x1="669.0" x2="854.0" stroke="black" y1="366.0"/>
<circle fill="url(#sphereTheme)" r="29.0" cx="1080" cy="30"/>
<text x="1109.0" y="30" id="text23" style="font-size:10px;text-anchor:start;fill:#000000;font-family:Verdana">DNN</text>
<circle fill="url(#sphereTheme)" r="20.0" cx="1080" cy="94"/>
<text x="1100.0" y="94" id="text23" style="font-size:10px;text-anchor:start;fill:#000000;font-family:Verdana">SVM</text>
<circle fill="url(#sphereTheme)" r="17.0" cx="1080" cy="158"/>
<text x="1097.0" y="158" id="text23" style="font-size:10px;text-anchor:start;fill:#000000;font-family:Verdana">SEGMENTATION</text>
<circle fill="url(#sphereTheme)" r="14.0" cx="1080" cy="222"/>
<text x="1094.0" y="222" id="text23" style="font-size:10px;text-anchor:start;fill:#000000;font-family:Verdana">ENSEMBLE CLASSIFICATION</text>
<circle fill="url(#sphereTheme)" r="11.0" cx="1080" cy="286"/>
<text x="1091.0" y="286" id="text23" style="font-size:10px;text-anchor:start;fill:#000000;font-family:Verdana">HMM</text>
<circle fill="url(#sphereTheme)" r="9.0" cx="1080" cy="350"/>
<text x="1089.0" y="350" id="text23" style="font-size:10px;text-anchor:start;fill:#000000;font-family:Verdana">WRITER IDENTIFICATION</text>
<circle fill="url(#sphereTheme)" r="10.0" cx="1080" cy="414"/>
<text x="1090.0" y="414" id="text23" style="font-size:10px;text-anchor:start;fill:#000000;font-family:Verdana">NUMERAL RECOGNITION</text>
<line y2="30.0" stroke-width="0.8333333333333333" x1="899.0" x2="1051.0" stroke="black" y1="30.0"/>
<line y2="94.0" stroke-width="2.5" x1="899.0" x2="1060.0" stroke="black" y1="30.0"/>
<line x1="899.0" x2="1063.0" y1="30.0" style="stroke-dasharray: 9, 5" y2="158.0" stroke="black" stroke-width="0.41666666666666663"/>
<line x1="899.0" x2="1066.0" y1="30.0" style="stroke-dasharray: 9, 5" y2="222.0" stroke="black" stroke-width="0.41666666666666663"/>
<line x1="899.0" x2="1071.0" y1="30.0" style="stroke-dasharray: 9, 5" y2="350.0" stroke="black" stroke-width="0.625"/>
<line x1="887.0" x2="1051.0" y1="94.0" style="stroke-dasharray: 9, 5" y2="30.0" stroke="black" stroke-width="0.41666666666666663"/>
<line y2="158.0" stroke-width="2.0833333333333335" x1="887.0" x2="1063.0" stroke="black" y1="94.0"/>
<line x1="887.0" x2="1066.0" y1="94.0" style="stroke-dasharray: 9, 5" y2="222.0" stroke="black" stroke-width="1.25"/>
<line x1="889.0" x2="1051.0" y1="158.0" style="stroke-dasharray: 9, 5" y2="30.0" stroke="black" stroke-width="0.8333333333333333"/>
<line x1="889.0" x2="1063.0" y1="158.0" style="stroke-dasharray: 9, 5" y2="158.0" stroke="black" stroke-width="0.8333333333333333"/>
<line y2="286.0" stroke-width="2.5" x1="889.0" x2="1069.0" stroke="black" y1="158.0"/>
<line x1="886.0" x2="1051.0" y1="222.0" style="stroke-dasharray: 9, 5" y2="30.0" stroke="black" stroke-width="0.41666666666666663"/>
<line y2="94.0" stroke-width="1.25" x1="886.0" x2="1060.0" stroke="black" y1="222.0"/>
<line y2="222.0" stroke-width="1.6666666666666665" x1="886.0" x2="1066.0" stroke="black" y1="222.0"/>
<line x1="879.0" x2="1060.0" y1="286.0" style="stroke-dasharray: 9, 5" y2="94.0" stroke="black" stroke-width="1.0"/>
<line x1="879.0" x2="1063.0" y1="286.0" style="stroke-dasharray: 9, 5" y2="158.0" stroke="black" stroke-width="1.0"/>
<line x1="879.0" x2="1066.0" y1="286.0" style="stroke-dasharray: 9, 5" y2="222.0" stroke="black" stroke-width="1.0"/>
<line y2="350.0" stroke-width="2.0" x1="879.0" x2="1071.0" stroke="black" y1="286.0"/>
<line x1="879.0" x2="1066.0" y1="350.0" style="stroke-dasharray: 9, 5" y2="222.0" stroke="black" stroke-width="1.25"/>
<line y2="414.0" stroke-width="2.5" x1="879.0" x2="1070.0" stroke="black" y1="350.0"/>
<line y2="158.0" stroke-width="1.6666666666666665" x1="877.0" x2="1063.0" stroke="black" y1="414.0"/>
<line x1="877.0" x2="1069.0" y1="414.0" style="stroke-dasharray: 9, 5" y2="286.0" stroke="black" stroke-width="1.6666666666666665"/>
</svg>

