<?xml version="1.0" encoding="UTF-8"?>
<svg xmlns:xlink="http://www.w3.org/1999/xlink" xmlns="http://www.w3.org/2000/svg" contentScriptType="text/ecmascript" width="1260" zoomAndPan="magnify" contentStyleType="text/css" height="509" preserveAspectRatio="xMidYMid meet" version="1.0">
<radialGradient xlink:actuate="onLoad" xlink:type="simple" id="sphereTheme" xlink:show="other" xmlns:xlink="http://www.w3.org/1999/xlink">
<stop style="stop-color:#C6DD3A" offset="0"/>
<stop style="stop-color:#C3DA39" offset="0.211"/>
<stop style="stop-color:#B8CF37" offset="0.3881"/>
<stop style="stop-color:#A7BE34" offset="0.5529"/>
<stop style="stop-color:#8EA630" offset="0.7103"/>
<stop style="stop-color:#6F872A" offset="0.861"/>
<stop style="stop-color:#4B6323" offset="1"/>
</radialGradient>
<circle fill="url(#sphereTheme)" r="19.473684210526315" cx="30" cy="30"/>
<text x="49.473684210526315" y="30" id="text23" style="font-size:10px;text-anchor:start;fill:#000000;font-family:Verdana">CHARACTER RECOGNITION</text>
<circle fill="url(#sphereTheme)" r="12.236842105263158" cx="30" cy="284"/>
<text x="42.23684210526316" y="284" id="text23" style="font-size:10px;text-anchor:start;fill:#000000;font-family:Verdana">TEXT RECOGNITION</text>
<circle fill="url(#sphereTheme)" r="29.342105263157894" cx="240" cy="30"/>
<text x="269.3421052631579" y="30" id="text23" style="font-size:10px;text-anchor:start;fill:#000000;font-family:Verdana">CHARACTER RECOGNITION</text>
<circle fill="url(#sphereTheme)" r="25.394736842105264" cx="240" cy="157"/>
<text x="265.39473684210526" y="157" id="text23" style="font-size:10px;text-anchor:start;fill:#000000;font-family:Verdana">NUMERAL RECOGNITION</text>
<circle fill="url(#sphereTheme)" r="14.868421052631579" cx="240" cy="284"/>
<text x="254.8684210526316" y="284" id="text23" style="font-size:10px;text-anchor:start;fill:#000000;font-family:Verdana">CHINESE CHARACTER RECOGNITION</text>
<circle fill="url(#sphereTheme)" r="14.210526315789473" cx="240" cy="411"/>
<text x="254.21052631578948" y="411" id="text23" style="font-size:10px;text-anchor:start;fill:#000000;font-family:Verdana">WORD SPOTTING</text>
<line y2="30.0" stroke-width="2.5" x1="49.473684210526315" x2="210.6578947368421" stroke="black" y1="30.0"/>
<line y2="157.0" stroke-width="1.1111111111111112" x1="49.473684210526315" x2="214.60526315789474" stroke="black" y1="30.0"/>
<line x1="49.473684210526315" x2="225.1315789473684" y1="30.0" style="stroke-dasharray: 9, 5" y2="284.0" stroke="black" stroke-width="2.5"/>
<line x1="42.23684210526316" x2="210.6578947368421" y1="284.0" style="stroke-dasharray: 9, 5" y2="30.0" stroke="black" stroke-width="1.6666666666666665"/>
<line x1="42.23684210526316" x2="214.60526315789474" y1="284.0" style="stroke-dasharray: 9, 5" y2="157.0" stroke="black" stroke-width="1.6666666666666665"/>
<line y2="411.0" stroke-width="1.6666666666666665" x1="42.23684210526316" x2="225.78947368421052" stroke="black" y1="284.0"/>
<circle fill="url(#sphereTheme)" r="30.0" cx="450" cy="30"/>
<text x="480.0" y="30" id="text23" style="font-size:10px;text-anchor:start;fill:#000000;font-family:Verdana">CHARACTER RECOGNITION</text>
<circle fill="url(#sphereTheme)" r="23.421052631578945" cx="450" cy="157"/>
<text x="473.42105263157896" y="157" id="text23" style="font-size:10px;text-anchor:start;fill:#000000;font-family:Verdana">HMM</text>
<circle fill="url(#sphereTheme)" r="19.473684210526315" cx="450" cy="284"/>
<text x="469.4736842105263" y="284" id="text23" style="font-size:10px;text-anchor:start;fill:#000000;font-family:Verdana">CHINESE CHARACTER RECOGNITION</text>
<circle fill="url(#sphereTheme)" r="11.578947368421051" cx="450" cy="411"/>
<text x="461.57894736842104" y="411" id="text23" style="font-size:10px;text-anchor:start;fill:#000000;font-family:Verdana">WRITER IDENTIFICATION</text>
<line y2="30.0" stroke-width="2.5" x1="269.3421052631579" x2="420.0" stroke="black" y1="30.0"/>
<line y2="157.0" stroke-width="0.8333333333333333" x1="269.3421052631579" x2="426.57894736842104" stroke="black" y1="30.0"/>
<line x1="269.3421052631579" x2="430.5263157894737" y1="30.0" style="stroke-dasharray: 9, 5" y2="284.0" stroke="black" stroke-width="1.0"/>
<line y2="30.0" stroke-width="1.6666666666666665" x1="265.39473684210526" x2="420.0" stroke="black" y1="157.0"/>
<line x1="265.39473684210526" x2="426.57894736842104" y1="157.0" style="stroke-dasharray: 9, 5" y2="157.0" stroke="black" stroke-width="1.1111111111111112"/>
<line x1="265.39473684210526" x2="430.5263157894737" y1="157.0" style="stroke-dasharray: 9, 5" y2="284.0" stroke="black" stroke-width="0.5555555555555556"/>
<line x1="254.8684210526316" x2="420.0" y1="284.0" style="stroke-dasharray: 9, 5" y2="30.0" stroke="black" stroke-width="1.25"/>
<line x1="254.8684210526316" x2="426.57894736842104" y1="284.0" style="stroke-dasharray: 9, 5" y2="157.0" stroke="black" stroke-width="1.25"/>
<line y2="284.0" stroke-width="1.25" x1="254.8684210526316" x2="430.5263157894737" stroke="black" y1="284.0"/>
<line x1="254.21052631578948" x2="420.0" y1="411.0" style="stroke-dasharray: 9, 5" y2="30.0" stroke="black" stroke-width="1.6666666666666665"/>
<circle fill="url(#sphereTheme)" r="27.36842105263158" cx="660" cy="30"/>
<text x="687.3684210526316" y="30" id="text23" style="font-size:10px;text-anchor:start;fill:#000000;font-family:Verdana">FEATURE-EXTRACTION</text>
<circle fill="url(#sphereTheme)" r="22.763157894736842" cx="660" cy="157"/>
<text x="682.7631578947369" y="157" id="text23" style="font-size:10px;text-anchor:start;fill:#000000;font-family:Verdana">HMM</text>
<circle fill="url(#sphereTheme)" r="17.5" cx="660" cy="284"/>
<text x="677.5" y="284" id="text23" style="font-size:10px;text-anchor:start;fill:#000000;font-family:Verdana">CHINESE CHARACTER RECOGNITION</text>
<circle fill="url(#sphereTheme)" r="16.184210526315788" cx="660" cy="411"/>
<text x="676.1842105263158" y="411" id="text23" style="font-size:10px;text-anchor:start;fill:#000000;font-family:Verdana">WRITER IDENTIFICATION</text>
<line y2="30.0" stroke-width="2.0833333333333335" x1="480.0" x2="632.6315789473684" stroke="black" y1="30.0"/>
<line x1="480.0" x2="637.2368421052631" y1="30.0" style="stroke-dasharray: 9, 5" y2="157.0" stroke="black" stroke-width="0.8333333333333333"/>
<line x1="480.0" x2="642.5" y1="30.0" style="stroke-dasharray: 9, 5" y2="284.0" stroke="black" stroke-width="1.0"/>
<line x1="480.0" x2="643.8157894736842" y1="30.0" style="stroke-dasharray: 9, 5" y2="411.0" stroke="black" stroke-width="0.8333333333333333"/>
<line x1="473.42105263157896" x2="632.6315789473684" y1="157.0" style="stroke-dasharray: 9, 5" y2="30.0" stroke="black" stroke-width="0.8333333333333333"/>
<line y2="157.0" stroke-width="2.5" x1="473.42105263157896" x2="637.2368421052631" stroke="black" y1="157.0"/>
<line x1="469.4736842105263" x2="632.6315789473684" y1="284.0" style="stroke-dasharray: 9, 5" y2="30.0" stroke="black" stroke-width="1.0"/>
<line x1="469.4736842105263" x2="637.2368421052631" y1="284.0" style="stroke-dasharray: 9, 5" y2="157.0" stroke="black" stroke-width="0.5"/>
<line y2="284.0" stroke-width="2.5" x1="469.4736842105263" x2="642.5" stroke="black" y1="284.0"/>
<line x1="461.57894736842104" x2="632.6315789473684" y1="411.0" style="stroke-dasharray: 9, 5" y2="30.0" stroke="black" stroke-width="1.25"/>
<line y2="411.0" stroke-width="3.75" x1="461.57894736842104" x2="643.8157894736842" stroke="black" y1="411.0"/>
<circle fill="url(#sphereTheme)" r="28.026315789473685" cx="870" cy="30"/>
<text x="898.0263157894736" y="30" id="text23" style="font-size:10px;text-anchor:start;fill:#000000;font-family:Verdana">CHARACTER RECOGNITION</text>
<circle fill="url(#sphereTheme)" r="26.710526315789476" cx="870" cy="93"/>
<text x="896.7105263157895" y="93" id="text23" style="font-size:10px;text-anchor:start;fill:#000000;font-family:Verdana">SEGMENTATION</text>
<circle fill="url(#sphereTheme)" r="24.078947368421055" cx="870" cy="156"/>
<text x="894.078947368421" y="156" id="text23" style="font-size:10px;text-anchor:start;fill:#000000;font-family:Verdana">HMM</text>
<circle fill="url(#sphereTheme)" r="18.815789473684212" cx="870" cy="219"/>
<text x="888.8157894736842" y="219" id="text23" style="font-size:10px;text-anchor:start;fill:#000000;font-family:Verdana">NUMERAL RECOGNITION</text>
<circle fill="url(#sphereTheme)" r="16.842105263157894" cx="870" cy="282"/>
<text x="886.8421052631579" y="282" id="text23" style="font-size:10px;text-anchor:start;fill:#000000;font-family:Verdana">SIGNATUR VERIFICATION</text>
<circle fill="url(#sphereTheme)" r="14.210526315789473" cx="870" cy="345"/>
<text x="884.2105263157895" y="345" id="text23" style="font-size:10px;text-anchor:start;fill:#000000;font-family:Verdana">SCRIPT IDENTIFICATION</text>
<circle fill="url(#sphereTheme)" r="12.894736842105264" cx="870" cy="408"/>
<text x="882.8947368421053" y="408" id="text23" style="font-size:10px;text-anchor:start;fill:#000000;font-family:Verdana">HISTORICAL-DOCUMENTS</text>
<circle fill="url(#sphereTheme)" r="14.210526315789473" cx="870" cy="471"/>
<text x="884.2105263157895" y="471" id="text23" style="font-size:10px;text-anchor:start;fill:#000000;font-family:Verdana">CHINESE CHARACTER RECOGNITION</text>
<line y2="30.0" stroke-width="3.75" x1="687.3684210526316" x2="841.9736842105264" stroke="black" y1="30.0"/>
<line y2="219.0" stroke-width="1.25" x1="687.3684210526316" x2="851.1842105263158" stroke="black" y1="30.0"/>
<line x1="682.7631578947369" x2="841.9736842105264" y1="157.0" style="stroke-dasharray: 9, 5" y2="30.0" stroke="black" stroke-width="0.41666666666666663"/>
<line x1="682.7631578947369" x2="843.2894736842105" y1="157.0" style="stroke-dasharray: 9, 5" y2="93.0" stroke="black" stroke-width="0.8333333333333333"/>
<line y2="156.0" stroke-width="1.6666666666666665" x1="682.7631578947369" x2="845.921052631579" stroke="black" y1="157.0"/>
<line x1="682.7631578947369" x2="851.1842105263158" y1="157.0" style="stroke-dasharray: 9, 5" y2="219.0" stroke="black" stroke-width="0.41666666666666663"/>
<line x1="682.7631578947369" x2="853.1578947368421" y1="157.0" style="stroke-dasharray: 9, 5" y2="282.0" stroke="black" stroke-width="0.7142857142857142"/>
<line x1="682.7631578947369" x2="855.7894736842105" y1="157.0" style="stroke-dasharray: 9, 5" y2="345.0" stroke="black" stroke-width="1.25"/>
<line x1="682.7631578947369" x2="857.1052631578947" y1="157.0" style="stroke-dasharray: 9, 5" y2="408.0" stroke="black" stroke-width="1.6666666666666665"/>
<line x1="677.5" x2="841.9736842105264" y1="284.0" style="stroke-dasharray: 9, 5" y2="30.0" stroke="black" stroke-width="0.5"/>
<line x1="677.5" x2="843.2894736842105" y1="284.0" style="stroke-dasharray: 9, 5" y2="93.0" stroke="black" stroke-width="2.0"/>
<line x1="677.5" x2="853.1578947368421" y1="284.0" style="stroke-dasharray: 9, 5" y2="282.0" stroke="black" stroke-width="0.7142857142857142"/>
<line y2="471.0" stroke-width="1.6666666666666665" x1="677.5" x2="855.7894736842105" stroke="black" y1="284.0"/>
<line y2="93.0" stroke-width="0.8333333333333333" x1="676.1842105263158" x2="843.2894736842105" stroke="black" y1="411.0"/>
<line y2="282.0" stroke-width="2.5" x1="676.1842105263158" x2="853.1578947368421" stroke="black" y1="411.0"/>
<line y2="345.0" stroke-width="2.5" x1="676.1842105263158" x2="855.7894736842105" stroke="black" y1="411.0"/>
<circle fill="url(#sphereTheme)" r="24.736842105263158" cx="1080" cy="30"/>
<text x="1104.7368421052631" y="30" id="text23" style="font-size:10px;text-anchor:start;fill:#000000;font-family:Verdana">DNN</text>
<circle fill="url(#sphereTheme)" r="20.13157894736842" cx="1080" cy="102"/>
<text x="1100.1315789473683" y="102" id="text23" style="font-size:10px;text-anchor:start;fill:#000000;font-family:Verdana">SVM</text>
<circle fill="url(#sphereTheme)" r="16.842105263157894" cx="1080" cy="174"/>
<text x="1096.842105263158" y="174" id="text23" style="font-size:10px;text-anchor:start;fill:#000000;font-family:Verdana">SEGMENTATION</text>
<circle fill="url(#sphereTheme)" r="18.157894736842103" cx="1080" cy="246"/>
<text x="1098.157894736842" y="246" id="text23" style="font-size:10px;text-anchor:start;fill:#000000;font-family:Verdana">ENSEMBLE CLASSIFICATION</text>
<circle fill="url(#sphereTheme)" r="14.210526315789473" cx="1080" cy="318"/>
<text x="1094.2105263157894" y="318" id="text23" style="font-size:10px;text-anchor:start;fill:#000000;font-family:Verdana">HMM</text>
<circle fill="url(#sphereTheme)" r="12.894736842105264" cx="1080" cy="390"/>
<text x="1092.8947368421052" y="390" id="text23" style="font-size:10px;text-anchor:start;fill:#000000;font-family:Verdana">WRITER IDENTIFICATION</text>
<circle fill="url(#sphereTheme)" r="9.605263157894736" cx="1080" cy="462"/>
<text x="1089.6052631578948" y="462" id="text23" style="font-size:10px;text-anchor:start;fill:#000000;font-family:Verdana">ATTENTION MECHANISM</text>
<line y2="30.0" stroke-width="0.8333333333333333" x1="898.0263157894736" x2="1055.2631578947369" stroke="black" y1="30.0"/>
<line y2="102.0" stroke-width="2.5" x1="898.0263157894736" x2="1059.8684210526317" stroke="black" y1="30.0"/>
<line x1="898.0263157894736" x2="1063.157894736842" y1="30.0" style="stroke-dasharray: 9, 5" y2="174.0" stroke="black" stroke-width="0.41666666666666663"/>
<line x1="898.0263157894736" x2="1061.842105263158" y1="30.0" style="stroke-dasharray: 9, 5" y2="246.0" stroke="black" stroke-width="0.41666666666666663"/>
<line x1="898.0263157894736" x2="1067.1052631578948" y1="30.0" style="stroke-dasharray: 9, 5" y2="390.0" stroke="black" stroke-width="0.625"/>
<line x1="896.7105263157895" x2="1055.2631578947369" y1="93.0" style="stroke-dasharray: 9, 5" y2="30.0" stroke="black" stroke-width="0.41666666666666663"/>
<line y2="174.0" stroke-width="2.0833333333333335" x1="896.7105263157895" x2="1063.157894736842" stroke="black" y1="93.0"/>
<line x1="896.7105263157895" x2="1061.842105263158" y1="93.0" style="stroke-dasharray: 9, 5" y2="246.0" stroke="black" stroke-width="1.25"/>
<line x1="894.078947368421" x2="1055.2631578947369" y1="156.0" style="stroke-dasharray: 9, 5" y2="30.0" stroke="black" stroke-width="0.8333333333333333"/>
<line x1="894.078947368421" x2="1063.157894736842" y1="156.0" style="stroke-dasharray: 9, 5" y2="174.0" stroke="black" stroke-width="0.8333333333333333"/>
<line y2="318.0" stroke-width="2.5" x1="894.078947368421" x2="1065.7894736842106" stroke="black" y1="156.0"/>
<line y2="30.0" stroke-width="0.8333333333333333" x1="888.8157894736842" x2="1055.2631578947369" stroke="black" y1="219.0"/>
<line x1="888.8157894736842" x2="1059.8684210526317" y1="219.0" style="stroke-dasharray: 9, 5" y2="102.0" stroke="black" stroke-width="0.8333333333333333"/>
<line x1="888.8157894736842" x2="1061.842105263158" y1="219.0" style="stroke-dasharray: 9, 5" y2="246.0" stroke="black" stroke-width="0.41666666666666663"/>
<line x1="888.8157894736842" x2="1067.1052631578948" y1="219.0" style="stroke-dasharray: 9, 5" y2="390.0" stroke="black" stroke-width="0.625"/>
<line y2="102.0" stroke-width="0.7142857142857142" x1="886.8421052631579" x2="1059.8684210526317" stroke="black" y1="282.0"/>
<line x1="886.8421052631579" x2="1061.842105263158" y1="282.0" style="stroke-dasharray: 9, 5" y2="246.0" stroke="black" stroke-width="1.4285714285714284"/>
<line y2="390.0" stroke-width="1.4285714285714284" x1="886.8421052631579" x2="1067.1052631578948" stroke="black" y1="282.0"/>
<line x1="884.2105263157895" x2="1059.8684210526317" y1="345.0" style="stroke-dasharray: 9, 5" y2="102.0" stroke="black" stroke-width="1.25"/>
<line y2="246.0" stroke-width="2.5" x1="884.2105263157895" x2="1061.842105263158" stroke="black" y1="345.0"/>
<line x1="884.2105263157895" x2="1065.7894736842106" y1="345.0" style="stroke-dasharray: 9, 5" y2="318.0" stroke="black" stroke-width="1.25"/>
<line y2="174.0" stroke-width="1.6666666666666665" x1="882.8947368421053" x2="1063.157894736842" stroke="black" y1="408.0"/>
<line x1="882.8947368421053" x2="1065.7894736842106" y1="408.0" style="stroke-dasharray: 9, 5" y2="318.0" stroke="black" stroke-width="1.6666666666666665"/>
<line x1="884.2105263157895" x2="1055.2631578947369" y1="471.0" style="stroke-dasharray: 9, 5" y2="30.0" stroke="black" stroke-width="1.6666666666666665"/>
<line y2="246.0" stroke-width="1.6666666666666665" x1="884.2105263157895" x2="1061.842105263158" stroke="black" y1="471.0"/>
</svg>

