<?xml version="1.0" encoding="UTF-8"?>
<svg xmlns:xlink="http://www.w3.org/1999/xlink" xmlns="http://www.w3.org/2000/svg" contentScriptType="text/ecmascript" width="1260" zoomAndPan="magnify" contentStyleType="text/css" height="509" preserveAspectRatio="xMidYMid meet" version="1.0">
<radialGradient xlink:actuate="onLoad" xlink:type="simple" id="sphereTheme" xlink:show="other" xmlns:xlink="http://www.w3.org/1999/xlink">
<stop style="stop-color:#C6DD3A" offset="0"/>
<stop style="stop-color:#C3DA39" offset="0.211"/>
<stop style="stop-color:#B8CF37" offset="0.3881"/>
<stop style="stop-color:#A7BE34" offset="0.5529"/>
<stop style="stop-color:#8EA630" offset="0.7103"/>
<stop style="stop-color:#6F872A" offset="0.861"/>
<stop style="stop-color:#4B6323" offset="1"/>
</radialGradient>
<circle fill="url(#sphereTheme)" r="6.192748091603054" cx="30" cy="30"/>
<text x="36.19274809160305" y="30" id="text23" style="font-size:10px;text-anchor:start;fill:#000000;font-family:Verdana">CHARACTER RECOGNITION</text>
<circle fill="url(#sphereTheme)" r="5.143129770992366" cx="30" cy="284"/>
<text x="35.14312977099237" y="284" id="text23" style="font-size:10px;text-anchor:start;fill:#000000;font-family:Verdana">TEXT RECOGNITION</text>
<circle fill="url(#sphereTheme)" r="9.150763358778626" cx="240" cy="30"/>
<text x="249.15076335877862" y="30" id="text23" style="font-size:10px;text-anchor:start;fill:#000000;font-family:Verdana">CHARACTER RECOGNITION</text>
<circle fill="url(#sphereTheme)" r="5.858778625954199" cx="240" cy="157"/>
<text x="245.8587786259542" y="157" id="text23" style="font-size:10px;text-anchor:start;fill:#000000;font-family:Verdana">NUMERAL RECOGNITION</text>
<circle fill="url(#sphereTheme)" r="5.5248091603053435" cx="240" cy="284"/>
<text x="245.52480916030535" y="284" id="text23" style="font-size:10px;text-anchor:start;fill:#000000;font-family:Verdana">CHINESE CHARACTER RECOGNITION</text>
<circle fill="url(#sphereTheme)" r="5.143129770992366" cx="240" cy="411"/>
<text x="245.14312977099237" y="411" id="text23" style="font-size:10px;text-anchor:start;fill:#000000;font-family:Verdana">WORD SPOTTING</text>
<line y2="30.0" stroke-width="2.5" x1="36.19274809160305" x2="230.84923664122138" stroke="black" y1="30.0"/>
<line y2="157.0" stroke-width="1.1111111111111112" x1="36.19274809160305" x2="234.1412213740458" stroke="black" y1="30.0"/>
<line x1="36.19274809160305" x2="234.47519083969465" y1="30.0" style="stroke-dasharray: 9, 5" y2="284.0" stroke="black" stroke-width="2.5"/>
<line x1="35.14312977099237" x2="230.84923664122138" y1="284.0" style="stroke-dasharray: 9, 5" y2="30.0" stroke="black" stroke-width="1.6666666666666665"/>
<line x1="35.14312977099237" x2="234.1412213740458" y1="284.0" style="stroke-dasharray: 9, 5" y2="157.0" stroke="black" stroke-width="1.6666666666666665"/>
<line y2="411.0" stroke-width="1.6666666666666665" x1="35.14312977099237" x2="234.85687022900763" stroke="black" y1="284.0"/>
<circle fill="url(#sphereTheme)" r="9.580152671755725" cx="450" cy="30"/>
<text x="459.58015267175574" y="30" id="text23" style="font-size:10px;text-anchor:start;fill:#000000;font-family:Verdana">CHARACTER RECOGNITION</text>
<circle fill="url(#sphereTheme)" r="6.8606870229007635" cx="450" cy="157"/>
<text x="456.8606870229008" y="157" id="text23" style="font-size:10px;text-anchor:start;fill:#000000;font-family:Verdana">HMM</text>
<circle fill="url(#sphereTheme)" r="6.33587786259542" cx="450" cy="284"/>
<text x="456.3358778625954" y="284" id="text23" style="font-size:10px;text-anchor:start;fill:#000000;font-family:Verdana">CHINESE CHARACTER RECOGNITION</text>
<circle fill="url(#sphereTheme)" r="5.190839694656488" cx="450" cy="411"/>
<text x="455.19083969465646" y="411" id="text23" style="font-size:10px;text-anchor:start;fill:#000000;font-family:Verdana">WRITER IDENTIFICATION</text>
<line y2="30.0" stroke-width="2.5" x1="249.15076335877862" x2="440.41984732824426" stroke="black" y1="30.0"/>
<line y2="157.0" stroke-width="0.8333333333333333" x1="249.15076335877862" x2="443.1393129770992" stroke="black" y1="30.0"/>
<line x1="249.15076335877862" x2="443.6641221374046" y1="30.0" style="stroke-dasharray: 9, 5" y2="284.0" stroke="black" stroke-width="1.0"/>
<line y2="30.0" stroke-width="1.6666666666666665" x1="245.8587786259542" x2="440.41984732824426" stroke="black" y1="157.0"/>
<line x1="245.8587786259542" x2="443.1393129770992" y1="157.0" style="stroke-dasharray: 9, 5" y2="157.0" stroke="black" stroke-width="1.1111111111111112"/>
<line x1="245.8587786259542" x2="443.6641221374046" y1="157.0" style="stroke-dasharray: 9, 5" y2="284.0" stroke="black" stroke-width="0.5555555555555556"/>
<line x1="245.52480916030535" x2="440.41984732824426" y1="284.0" style="stroke-dasharray: 9, 5" y2="30.0" stroke="black" stroke-width="1.25"/>
<line x1="245.52480916030535" x2="443.1393129770992" y1="284.0" style="stroke-dasharray: 9, 5" y2="157.0" stroke="black" stroke-width="1.25"/>
<line y2="284.0" stroke-width="1.25" x1="245.52480916030535" x2="443.6641221374046" stroke="black" y1="284.0"/>
<line x1="245.14312977099237" x2="440.41984732824426" y1="411.0" style="stroke-dasharray: 9, 5" y2="30.0" stroke="black" stroke-width="1.6666666666666665"/>
<circle fill="url(#sphereTheme)" r="11.822519083969464" cx="660" cy="30"/>
<text x="671.8225190839695" y="30" id="text23" style="font-size:10px;text-anchor:start;fill:#000000;font-family:Verdana">FEATURE-EXTRACTION</text>
<circle fill="url(#sphereTheme)" r="7.242366412213741" cx="660" cy="157"/>
<text x="667.2423664122138" y="157" id="text23" style="font-size:10px;text-anchor:start;fill:#000000;font-family:Verdana">HMM</text>
<circle fill="url(#sphereTheme)" r="5.90648854961832" cx="660" cy="284"/>
<text x="665.9064885496183" y="284" id="text23" style="font-size:10px;text-anchor:start;fill:#000000;font-family:Verdana">CHINESE CHARACTER RECOGNITION</text>
<circle fill="url(#sphereTheme)" r="5.620229007633588" cx="660" cy="411"/>
<text x="665.6202290076336" y="411" id="text23" style="font-size:10px;text-anchor:start;fill:#000000;font-family:Verdana">WRITER IDENTIFICATION</text>
<line y2="30.0" stroke-width="2.0833333333333335" x1="459.58015267175574" x2="648.1774809160305" stroke="black" y1="30.0"/>
<line x1="459.58015267175574" x2="652.7576335877862" y1="30.0" style="stroke-dasharray: 9, 5" y2="157.0" stroke="black" stroke-width="0.8333333333333333"/>
<line x1="459.58015267175574" x2="654.0935114503817" y1="30.0" style="stroke-dasharray: 9, 5" y2="284.0" stroke="black" stroke-width="1.0"/>
<line x1="459.58015267175574" x2="654.3797709923664" y1="30.0" style="stroke-dasharray: 9, 5" y2="411.0" stroke="black" stroke-width="0.8333333333333333"/>
<line x1="456.8606870229008" x2="648.1774809160305" y1="157.0" style="stroke-dasharray: 9, 5" y2="30.0" stroke="black" stroke-width="0.8333333333333333"/>
<line y2="157.0" stroke-width="2.5" x1="456.8606870229008" x2="652.7576335877862" stroke="black" y1="157.0"/>
<line x1="456.3358778625954" x2="648.1774809160305" y1="284.0" style="stroke-dasharray: 9, 5" y2="30.0" stroke="black" stroke-width="1.0"/>
<line x1="456.3358778625954" x2="652.7576335877862" y1="284.0" style="stroke-dasharray: 9, 5" y2="157.0" stroke="black" stroke-width="0.5"/>
<line y2="284.0" stroke-width="2.5" x1="456.3358778625954" x2="654.0935114503817" stroke="black" y1="284.0"/>
<line x1="455.19083969465646" x2="648.1774809160305" y1="411.0" style="stroke-dasharray: 9, 5" y2="30.0" stroke="black" stroke-width="1.25"/>
<line y2="411.0" stroke-width="3.75" x1="455.19083969465646" x2="654.3797709923664" stroke="black" y1="411.0"/>
<circle fill="url(#sphereTheme)" r="18.88358778625954" cx="870" cy="30"/>
<text x="888.8835877862596" y="30" id="text23" style="font-size:10px;text-anchor:start;fill:#000000;font-family:Verdana">CHARACTER RECOGNITION</text>
<circle fill="url(#sphereTheme)" r="8.864503816793894" cx="870" cy="93"/>
<text x="878.8645038167939" y="93" id="text23" style="font-size:10px;text-anchor:start;fill:#000000;font-family:Verdana">SEGMENTATION</text>
<circle fill="url(#sphereTheme)" r="7.385496183206107" cx="870" cy="156"/>
<text x="877.3854961832061" y="156" id="text23" style="font-size:10px;text-anchor:start;fill:#000000;font-family:Verdana">HMM</text>
<circle fill="url(#sphereTheme)" r="6.8606870229007635" cx="870" cy="219"/>
<text x="876.8606870229007" y="219" id="text23" style="font-size:10px;text-anchor:start;fill:#000000;font-family:Verdana">NUMERAL RECOGNITION</text>
<circle fill="url(#sphereTheme)" r="6.001908396946565" cx="870" cy="282"/>
<text x="876.0019083969465" y="282" id="text23" style="font-size:10px;text-anchor:start;fill:#000000;font-family:Verdana">SIGNATUR VERIFICATION</text>
<circle fill="url(#sphereTheme)" r="5.429389312977099" cx="870" cy="345"/>
<text x="875.4293893129772" y="345" id="text23" style="font-size:10px;text-anchor:start;fill:#000000;font-family:Verdana">SCRIPT IDENTIFICATION</text>
<circle fill="url(#sphereTheme)" r="5.190839694656488" cx="870" cy="408"/>
<text x="875.1908396946565" y="408" id="text23" style="font-size:10px;text-anchor:start;fill:#000000;font-family:Verdana">HISTORICAL-DOCUMENTS</text>
<circle fill="url(#sphereTheme)" r="5.238549618320611" cx="870" cy="471"/>
<text x="875.2385496183206" y="471" id="text23" style="font-size:10px;text-anchor:start;fill:#000000;font-family:Verdana">CHINESE CHARACTER RECOGNITION</text>
<line y2="30.0" stroke-width="3.75" x1="671.8225190839695" x2="851.1164122137404" stroke="black" y1="30.0"/>
<line y2="219.0" stroke-width="1.25" x1="671.8225190839695" x2="863.1393129770993" stroke="black" y1="30.0"/>
<line x1="667.2423664122138" x2="851.1164122137404" y1="157.0" style="stroke-dasharray: 9, 5" y2="30.0" stroke="black" stroke-width="0.41666666666666663"/>
<line x1="667.2423664122138" x2="861.1354961832061" y1="157.0" style="stroke-dasharray: 9, 5" y2="93.0" stroke="black" stroke-width="0.8333333333333333"/>
<line y2="156.0" stroke-width="1.6666666666666665" x1="667.2423664122138" x2="862.6145038167939" stroke="black" y1="157.0"/>
<line x1="667.2423664122138" x2="863.1393129770993" y1="157.0" style="stroke-dasharray: 9, 5" y2="219.0" stroke="black" stroke-width="0.41666666666666663"/>
<line x1="667.2423664122138" x2="863.9980916030535" y1="157.0" style="stroke-dasharray: 9, 5" y2="282.0" stroke="black" stroke-width="0.7142857142857142"/>
<line x1="667.2423664122138" x2="864.5706106870228" y1="157.0" style="stroke-dasharray: 9, 5" y2="345.0" stroke="black" stroke-width="1.25"/>
<line x1="667.2423664122138" x2="864.8091603053435" y1="157.0" style="stroke-dasharray: 9, 5" y2="408.0" stroke="black" stroke-width="1.6666666666666665"/>
<line x1="665.9064885496183" x2="851.1164122137404" y1="284.0" style="stroke-dasharray: 9, 5" y2="30.0" stroke="black" stroke-width="0.5"/>
<line x1="665.9064885496183" x2="861.1354961832061" y1="284.0" style="stroke-dasharray: 9, 5" y2="93.0" stroke="black" stroke-width="2.0"/>
<line x1="665.9064885496183" x2="863.9980916030535" y1="284.0" style="stroke-dasharray: 9, 5" y2="282.0" stroke="black" stroke-width="0.7142857142857142"/>
<line y2="471.0" stroke-width="1.6666666666666665" x1="665.9064885496183" x2="864.7614503816794" stroke="black" y1="284.0"/>
<line y2="93.0" stroke-width="0.8333333333333333" x1="665.6202290076336" x2="861.1354961832061" stroke="black" y1="411.0"/>
<line y2="282.0" stroke-width="2.5" x1="665.6202290076336" x2="863.9980916030535" stroke="black" y1="411.0"/>
<line y2="345.0" stroke-width="2.5" x1="665.6202290076336" x2="864.5706106870228" stroke="black" y1="411.0"/>
<circle fill="url(#sphereTheme)" r="30.0" cx="1080" cy="30"/>
<text x="1110.0" y="30" id="text23" style="font-size:10px;text-anchor:start;fill:#000000;font-family:Verdana">DNN</text>
<circle fill="url(#sphereTheme)" r="21.412213740458014" cx="1080" cy="102"/>
<text x="1101.412213740458" y="102" id="text23" style="font-size:10px;text-anchor:start;fill:#000000;font-family:Verdana">SVM</text>
<circle fill="url(#sphereTheme)" r="11.202290076335878" cx="1080" cy="174"/>
<text x="1091.2022900763359" y="174" id="text23" style="font-size:10px;text-anchor:start;fill:#000000;font-family:Verdana">SEGMENTATION</text>
<circle fill="url(#sphereTheme)" r="7.814885496183206" cx="1080" cy="246"/>
<text x="1087.8148854961833" y="246" id="text23" style="font-size:10px;text-anchor:start;fill:#000000;font-family:Verdana">ENSEMBLE CLASSIFICATION</text>
<circle fill="url(#sphereTheme)" r="6.097328244274809" cx="1080" cy="318"/>
<text x="1086.0973282442749" y="318" id="text23" style="font-size:10px;text-anchor:start;fill:#000000;font-family:Verdana">HMM</text>
<circle fill="url(#sphereTheme)" r="5.858778625954199" cx="1080" cy="390"/>
<text x="1085.8587786259543" y="390" id="text23" style="font-size:10px;text-anchor:start;fill:#000000;font-family:Verdana">WRITER IDENTIFICATION</text>
<circle fill="url(#sphereTheme)" r="5.190839694656488" cx="1080" cy="462"/>
<text x="1085.1908396946565" y="462" id="text23" style="font-size:10px;text-anchor:start;fill:#000000;font-family:Verdana">ATTENTION MECHANISM</text>
<line y2="30.0" stroke-width="0.8333333333333333" x1="888.8835877862596" x2="1050.0" stroke="black" y1="30.0"/>
<line y2="102.0" stroke-width="2.5" x1="888.8835877862596" x2="1058.587786259542" stroke="black" y1="30.0"/>
<line x1="888.8835877862596" x2="1068.7977099236641" y1="30.0" style="stroke-dasharray: 9, 5" y2="174.0" stroke="black" stroke-width="0.41666666666666663"/>
<line x1="888.8835877862596" x2="1072.1851145038167" y1="30.0" style="stroke-dasharray: 9, 5" y2="246.0" stroke="black" stroke-width="0.41666666666666663"/>
<line x1="888.8835877862596" x2="1074.1412213740457" y1="30.0" style="stroke-dasharray: 9, 5" y2="390.0" stroke="black" stroke-width="0.625"/>
<line x1="878.8645038167939" x2="1050.0" y1="93.0" style="stroke-dasharray: 9, 5" y2="30.0" stroke="black" stroke-width="0.41666666666666663"/>
<line y2="174.0" stroke-width="2.0833333333333335" x1="878.8645038167939" x2="1068.7977099236641" stroke="black" y1="93.0"/>
<line x1="878.8645038167939" x2="1072.1851145038167" y1="93.0" style="stroke-dasharray: 9, 5" y2="246.0" stroke="black" stroke-width="1.25"/>
<line x1="877.3854961832061" x2="1050.0" y1="156.0" style="stroke-dasharray: 9, 5" y2="30.0" stroke="black" stroke-width="0.8333333333333333"/>
<line x1="877.3854961832061" x2="1068.7977099236641" y1="156.0" style="stroke-dasharray: 9, 5" y2="174.0" stroke="black" stroke-width="0.8333333333333333"/>
<line y2="318.0" stroke-width="2.5" x1="877.3854961832061" x2="1073.9026717557251" stroke="black" y1="156.0"/>
<line y2="30.0" stroke-width="0.8333333333333333" x1="876.8606870229007" x2="1050.0" stroke="black" y1="219.0"/>
<line x1="876.8606870229007" x2="1058.587786259542" y1="219.0" style="stroke-dasharray: 9, 5" y2="102.0" stroke="black" stroke-width="0.8333333333333333"/>
<line x1="876.8606870229007" x2="1072.1851145038167" y1="219.0" style="stroke-dasharray: 9, 5" y2="246.0" stroke="black" stroke-width="0.41666666666666663"/>
<line x1="876.8606870229007" x2="1074.1412213740457" y1="219.0" style="stroke-dasharray: 9, 5" y2="390.0" stroke="black" stroke-width="0.625"/>
<line y2="102.0" stroke-width="0.7142857142857142" x1="876.0019083969465" x2="1058.587786259542" stroke="black" y1="282.0"/>
<line x1="876.0019083969465" x2="1072.1851145038167" y1="282.0" style="stroke-dasharray: 9, 5" y2="246.0" stroke="black" stroke-width="1.4285714285714284"/>
<line y2="390.0" stroke-width="1.4285714285714284" x1="876.0019083969465" x2="1074.1412213740457" stroke="black" y1="282.0"/>
<line x1="875.4293893129772" x2="1058.587786259542" y1="345.0" style="stroke-dasharray: 9, 5" y2="102.0" stroke="black" stroke-width="1.25"/>
<line y2="246.0" stroke-width="2.5" x1="875.4293893129772" x2="1072.1851145038167" stroke="black" y1="345.0"/>
<line x1="875.4293893129772" x2="1073.9026717557251" y1="345.0" style="stroke-dasharray: 9, 5" y2="318.0" stroke="black" stroke-width="1.25"/>
<line y2="174.0" stroke-width="1.6666666666666665" x1="875.1908396946565" x2="1068.7977099236641" stroke="black" y1="408.0"/>
<line x1="875.1908396946565" x2="1073.9026717557251" y1="408.0" style="stroke-dasharray: 9, 5" y2="318.0" stroke="black" stroke-width="1.6666666666666665"/>
<line x1="875.2385496183206" x2="1050.0" y1="471.0" style="stroke-dasharray: 9, 5" y2="30.0" stroke="black" stroke-width="1.6666666666666665"/>
<line y2="246.0" stroke-width="1.6666666666666665" x1="875.2385496183206" x2="1072.1851145038167" stroke="black" y1="471.0"/>
</svg>

