<?xml version="1.0" encoding="UTF-8"?>
<svg xmlns:xlink="http://www.w3.org/1999/xlink" xmlns="http://www.w3.org/2000/svg" contentScriptType="text/ecmascript" width="1260" zoomAndPan="magnify" contentStyleType="text/css" height="509" preserveAspectRatio="xMidYMid meet" version="1.0">
<radialGradient xlink:actuate="onLoad" xlink:type="simple" id="sphereTheme" xlink:show="other" xmlns:xlink="http://www.w3.org/1999/xlink">
<stop style="stop-color:#C6DD3A" offset="0"/>
<stop style="stop-color:#C3DA39" offset="0.211"/>
<stop style="stop-color:#B8CF37" offset="0.3881"/>
<stop style="stop-color:#A7BE34" offset="0.5529"/>
<stop style="stop-color:#8EA630" offset="0.7103"/>
<stop style="stop-color:#6F872A" offset="0.861"/>
<stop style="stop-color:#4B6323" offset="1"/>
</radialGradient>
<circle fill="url(#sphereTheme)" r="20.74074074074074" cx="30" cy="30"/>
<text x="50.74074074074074" y="30" id="text23" style="font-size:10px;text-anchor:start;fill:#000000;font-family:Verdana">CHARACTER RECOGNITION</text>
<circle fill="url(#sphereTheme)" r="7.777777777777778" cx="30" cy="284"/>
<text x="37.77777777777778" y="284" id="text23" style="font-size:10px;text-anchor:start;fill:#000000;font-family:Verdana">TEXT RECOGNITION</text>
<circle fill="url(#sphereTheme)" r="28.14814814814815" cx="240" cy="30"/>
<text x="268.14814814814815" y="30" id="text23" style="font-size:10px;text-anchor:start;fill:#000000;font-family:Verdana">CHARACTER RECOGNITION</text>
<circle fill="url(#sphereTheme)" r="16.11111111111111" cx="240" cy="157"/>
<text x="256.1111111111111" y="157" id="text23" style="font-size:10px;text-anchor:start;fill:#000000;font-family:Verdana">NUMERAL RECOGNITION</text>
<circle fill="url(#sphereTheme)" r="11.481481481481481" cx="240" cy="284"/>
<text x="251.48148148148147" y="284" id="text23" style="font-size:10px;text-anchor:start;fill:#000000;font-family:Verdana">CHINESE CHARACTER RECOGNITION</text>
<circle fill="url(#sphereTheme)" r="6.851851851851851" cx="240" cy="411"/>
<text x="246.85185185185185" y="411" id="text23" style="font-size:10px;text-anchor:start;fill:#000000;font-family:Verdana">WORD SPOTTING</text>
<line y2="30.0" stroke-width="2.5" x1="50.74074074074074" x2="211.85185185185185" stroke="black" y1="30.0"/>
<line y2="157.0" stroke-width="1.1111111111111112" x1="50.74074074074074" x2="223.88888888888889" stroke="black" y1="30.0"/>
<line x1="50.74074074074074" x2="228.51851851851853" y1="30.0" style="stroke-dasharray: 9, 5" y2="284.0" stroke="black" stroke-width="2.5"/>
<line x1="37.77777777777778" x2="211.85185185185185" y1="284.0" style="stroke-dasharray: 9, 5" y2="30.0" stroke="black" stroke-width="1.6666666666666665"/>
<line x1="37.77777777777778" x2="223.88888888888889" y1="284.0" style="stroke-dasharray: 9, 5" y2="157.0" stroke="black" stroke-width="1.6666666666666665"/>
<line y2="411.0" stroke-width="1.6666666666666665" x1="37.77777777777778" x2="233.14814814814815" stroke="black" y1="284.0"/>
<circle fill="url(#sphereTheme)" r="30.0" cx="450" cy="30"/>
<text x="480.0" y="30" id="text23" style="font-size:10px;text-anchor:start;fill:#000000;font-family:Verdana">CHARACTER RECOGNITION</text>
<circle fill="url(#sphereTheme)" r="20.74074074074074" cx="450" cy="157"/>
<text x="470.74074074074076" y="157" id="text23" style="font-size:10px;text-anchor:start;fill:#000000;font-family:Verdana">HMM</text>
<circle fill="url(#sphereTheme)" r="13.333333333333332" cx="450" cy="284"/>
<text x="463.3333333333333" y="284" id="text23" style="font-size:10px;text-anchor:start;fill:#000000;font-family:Verdana">CHINESE CHARACTER RECOGNITION</text>
<circle fill="url(#sphereTheme)" r="7.777777777777778" cx="450" cy="411"/>
<text x="457.77777777777777" y="411" id="text23" style="font-size:10px;text-anchor:start;fill:#000000;font-family:Verdana">WRITER IDENTIFICATION</text>
<line y2="30.0" stroke-width="2.5" x1="268.14814814814815" x2="420.0" stroke="black" y1="30.0"/>
<line y2="157.0" stroke-width="0.8333333333333333" x1="268.14814814814815" x2="429.25925925925924" stroke="black" y1="30.0"/>
<line x1="268.14814814814815" x2="436.6666666666667" y1="30.0" style="stroke-dasharray: 9, 5" y2="284.0" stroke="black" stroke-width="1.0"/>
<line y2="30.0" stroke-width="1.6666666666666665" x1="256.1111111111111" x2="420.0" stroke="black" y1="157.0"/>
<line x1="256.1111111111111" x2="429.25925925925924" y1="157.0" style="stroke-dasharray: 9, 5" y2="157.0" stroke="black" stroke-width="1.1111111111111112"/>
<line x1="256.1111111111111" x2="436.6666666666667" y1="157.0" style="stroke-dasharray: 9, 5" y2="284.0" stroke="black" stroke-width="0.5555555555555556"/>
<line x1="251.48148148148147" x2="420.0" y1="284.0" style="stroke-dasharray: 9, 5" y2="30.0" stroke="black" stroke-width="1.25"/>
<line x1="251.48148148148147" x2="429.25925925925924" y1="284.0" style="stroke-dasharray: 9, 5" y2="157.0" stroke="black" stroke-width="1.25"/>
<line y2="284.0" stroke-width="1.25" x1="251.48148148148147" x2="436.6666666666667" stroke="black" y1="284.0"/>
<line x1="246.85185185185185" x2="420.0" y1="411.0" style="stroke-dasharray: 9, 5" y2="30.0" stroke="black" stroke-width="1.6666666666666665"/>
<circle fill="url(#sphereTheme)" r="25.37037037037037" cx="660" cy="30"/>
<text x="685.3703703703703" y="30" id="text23" style="font-size:10px;text-anchor:start;fill:#000000;font-family:Verdana">FEATURE-EXTRACTION</text>
<circle fill="url(#sphereTheme)" r="20.74074074074074" cx="660" cy="157"/>
<text x="680.7407407407408" y="157" id="text23" style="font-size:10px;text-anchor:start;fill:#000000;font-family:Verdana">HMM</text>
<circle fill="url(#sphereTheme)" r="9.62962962962963" cx="660" cy="284"/>
<text x="669.6296296296297" y="284" id="text23" style="font-size:10px;text-anchor:start;fill:#000000;font-family:Verdana">CHINESE CHARACTER RECOGNITION</text>
<circle fill="url(#sphereTheme)" r="10.555555555555555" cx="660" cy="411"/>
<text x="670.5555555555555" y="411" id="text23" style="font-size:10px;text-anchor:start;fill:#000000;font-family:Verdana">WRITER IDENTIFICATION</text>
<line y2="30.0" stroke-width="2.0833333333333335" x1="480.0" x2="634.6296296296297" stroke="black" y1="30.0"/>
<line x1="480.0" x2="639.2592592592592" y1="30.0" style="stroke-dasharray: 9, 5" y2="157.0" stroke="black" stroke-width="0.8333333333333333"/>
<line x1="480.0" x2="650.3703703703703" y1="30.0" style="stroke-dasharray: 9, 5" y2="284.0" stroke="black" stroke-width="1.0"/>
<line x1="480.0" x2="649.4444444444445" y1="30.0" style="stroke-dasharray: 9, 5" y2="411.0" stroke="black" stroke-width="0.8333333333333333"/>
<line x1="470.74074074074076" x2="634.6296296296297" y1="157.0" style="stroke-dasharray: 9, 5" y2="30.0" stroke="black" stroke-width="0.8333333333333333"/>
<line y2="157.0" stroke-width="2.5" x1="470.74074074074076" x2="639.2592592592592" stroke="black" y1="157.0"/>
<line x1="463.3333333333333" x2="634.6296296296297" y1="284.0" style="stroke-dasharray: 9, 5" y2="30.0" stroke="black" stroke-width="1.0"/>
<line x1="463.3333333333333" x2="639.2592592592592" y1="284.0" style="stroke-dasharray: 9, 5" y2="157.0" stroke="black" stroke-width="0.5"/>
<line y2="284.0" stroke-width="2.5" x1="463.3333333333333" x2="650.3703703703703" stroke="black" y1="284.0"/>
<line x1="457.77777777777777" x2="634.6296296296297" y1="411.0" style="stroke-dasharray: 9, 5" y2="30.0" stroke="black" stroke-width="1.25"/>
<line y2="411.0" stroke-width="3.75" x1="457.77777777777777" x2="649.4444444444445" stroke="black" y1="411.0"/>
<circle fill="url(#sphereTheme)" r="27.22222222222222" cx="870" cy="30"/>
<text x="897.2222222222222" y="30" id="text23" style="font-size:10px;text-anchor:start;fill:#000000;font-family:Verdana">CHARACTER RECOGNITION</text>
<circle fill="url(#sphereTheme)" r="16.11111111111111" cx="870" cy="93"/>
<text x="886.1111111111111" y="93" id="text23" style="font-size:10px;text-anchor:start;fill:#000000;font-family:Verdana">SEGMENTATION</text>
<circle fill="url(#sphereTheme)" r="17.962962962962962" cx="870" cy="156"/>
<text x="887.9629629629629" y="156" id="text23" style="font-size:10px;text-anchor:start;fill:#000000;font-family:Verdana">HMM</text>
<circle fill="url(#sphereTheme)" r="13.333333333333332" cx="870" cy="219"/>
<text x="883.3333333333334" y="219" id="text23" style="font-size:10px;text-anchor:start;fill:#000000;font-family:Verdana">NUMERAL RECOGNITION</text>
<circle fill="url(#sphereTheme)" r="10.555555555555555" cx="870" cy="282"/>
<text x="880.5555555555555" y="282" id="text23" style="font-size:10px;text-anchor:start;fill:#000000;font-family:Verdana">SIGNATUR VERIFICATION</text>
<circle fill="url(#sphereTheme)" r="9.62962962962963" cx="870" cy="345"/>
<text x="879.6296296296297" y="345" id="text23" style="font-size:10px;text-anchor:start;fill:#000000;font-family:Verdana">SCRIPT IDENTIFICATION</text>
<circle fill="url(#sphereTheme)" r="6.851851851851851" cx="870" cy="408"/>
<text x="876.8518518518518" y="408" id="text23" style="font-size:10px;text-anchor:start;fill:#000000;font-family:Verdana">HISTORICAL-DOCUMENTS</text>
<circle fill="url(#sphereTheme)" r="6.851851851851851" cx="870" cy="471"/>
<text x="876.8518518518518" y="471" id="text23" style="font-size:10px;text-anchor:start;fill:#000000;font-family:Verdana">CHINESE CHARACTER RECOGNITION</text>
<line y2="30.0" stroke-width="3.75" x1="685.3703703703703" x2="842.7777777777778" stroke="black" y1="30.0"/>
<line y2="219.0" stroke-width="1.25" x1="685.3703703703703" x2="856.6666666666666" stroke="black" y1="30.0"/>
<line x1="680.7407407407408" x2="842.7777777777778" y1="157.0" style="stroke-dasharray: 9, 5" y2="30.0" stroke="black" stroke-width="0.41666666666666663"/>
<line x1="680.7407407407408" x2="853.8888888888889" y1="157.0" style="stroke-dasharray: 9, 5" y2="93.0" stroke="black" stroke-width="0.8333333333333333"/>
<line y2="156.0" stroke-width="1.6666666666666665" x1="680.7407407407408" x2="852.0370370370371" stroke="black" y1="157.0"/>
<line x1="680.7407407407408" x2="856.6666666666666" y1="157.0" style="stroke-dasharray: 9, 5" y2="219.0" stroke="black" stroke-width="0.41666666666666663"/>
<line x1="680.7407407407408" x2="859.4444444444445" y1="157.0" style="stroke-dasharray: 9, 5" y2="282.0" stroke="black" stroke-width="0.7142857142857142"/>
<line x1="680.7407407407408" x2="860.3703703703703" y1="157.0" style="stroke-dasharray: 9, 5" y2="345.0" stroke="black" stroke-width="1.25"/>
<line x1="680.7407407407408" x2="863.1481481481482" y1="157.0" style="stroke-dasharray: 9, 5" y2="408.0" stroke="black" stroke-width="1.6666666666666665"/>
<line x1="669.6296296296297" x2="842.7777777777778" y1="284.0" style="stroke-dasharray: 9, 5" y2="30.0" stroke="black" stroke-width="0.5"/>
<line x1="669.6296296296297" x2="853.8888888888889" y1="284.0" style="stroke-dasharray: 9, 5" y2="93.0" stroke="black" stroke-width="2.0"/>
<line x1="669.6296296296297" x2="859.4444444444445" y1="284.0" style="stroke-dasharray: 9, 5" y2="282.0" stroke="black" stroke-width="0.7142857142857142"/>
<line y2="471.0" stroke-width="1.6666666666666665" x1="669.6296296296297" x2="863.1481481481482" stroke="black" y1="284.0"/>
<line y2="93.0" stroke-width="0.8333333333333333" x1="670.5555555555555" x2="853.8888888888889" stroke="black" y1="411.0"/>
<line y2="282.0" stroke-width="2.5" x1="670.5555555555555" x2="859.4444444444445" stroke="black" y1="411.0"/>
<line y2="345.0" stroke-width="2.5" x1="670.5555555555555" x2="860.3703703703703" stroke="black" y1="411.0"/>
<circle fill="url(#sphereTheme)" r="27.22222222222222" cx="1080" cy="30"/>
<text x="1107.2222222222222" y="30" id="text23" style="font-size:10px;text-anchor:start;fill:#000000;font-family:Verdana">DNN</text>
<circle fill="url(#sphereTheme)" r="18.88888888888889" cx="1080" cy="102"/>
<text x="1098.888888888889" y="102" id="text23" style="font-size:10px;text-anchor:start;fill:#000000;font-family:Verdana">SVM</text>
<circle fill="url(#sphereTheme)" r="16.11111111111111" cx="1080" cy="174"/>
<text x="1096.111111111111" y="174" id="text23" style="font-size:10px;text-anchor:start;fill:#000000;font-family:Verdana">SEGMENTATION</text>
<circle fill="url(#sphereTheme)" r="13.333333333333332" cx="1080" cy="246"/>
<text x="1093.3333333333333" y="246" id="text23" style="font-size:10px;text-anchor:start;fill:#000000;font-family:Verdana">ENSEMBLE CLASSIFICATION</text>
<circle fill="url(#sphereTheme)" r="10.555555555555555" cx="1080" cy="318"/>
<text x="1090.5555555555557" y="318" id="text23" style="font-size:10px;text-anchor:start;fill:#000000;font-family:Verdana">HMM</text>
<circle fill="url(#sphereTheme)" r="8.703703703703702" cx="1080" cy="390"/>
<text x="1088.7037037037037" y="390" id="text23" style="font-size:10px;text-anchor:start;fill:#000000;font-family:Verdana">WRITER IDENTIFICATION</text>
<circle fill="url(#sphereTheme)" r="5.925925925925926" cx="1080" cy="462"/>
<text x="1085.9259259259259" y="462" id="text23" style="font-size:10px;text-anchor:start;fill:#000000;font-family:Verdana">ATTENTION MECHANISM</text>
<line y2="30.0" stroke-width="0.8333333333333333" x1="897.2222222222222" x2="1052.7777777777778" stroke="black" y1="30.0"/>
<line y2="102.0" stroke-width="2.5" x1="897.2222222222222" x2="1061.111111111111" stroke="black" y1="30.0"/>
<line x1="897.2222222222222" x2="1063.888888888889" y1="30.0" style="stroke-dasharray: 9, 5" y2="174.0" stroke="black" stroke-width="0.41666666666666663"/>
<line x1="897.2222222222222" x2="1066.6666666666667" y1="30.0" style="stroke-dasharray: 9, 5" y2="246.0" stroke="black" stroke-width="0.41666666666666663"/>
<line x1="897.2222222222222" x2="1071.2962962962963" y1="30.0" style="stroke-dasharray: 9, 5" y2="390.0" stroke="black" stroke-width="0.625"/>
<line x1="886.1111111111111" x2="1052.7777777777778" y1="93.0" style="stroke-dasharray: 9, 5" y2="30.0" stroke="black" stroke-width="0.41666666666666663"/>
<line y2="174.0" stroke-width="2.0833333333333335" x1="886.1111111111111" x2="1063.888888888889" stroke="black" y1="93.0"/>
<line x1="886.1111111111111" x2="1066.6666666666667" y1="93.0" style="stroke-dasharray: 9, 5" y2="246.0" stroke="black" stroke-width="1.25"/>
<line x1="887.9629629629629" x2="1052.7777777777778" y1="156.0" style="stroke-dasharray: 9, 5" y2="30.0" stroke="black" stroke-width="0.8333333333333333"/>
<line x1="887.9629629629629" x2="1063.888888888889" y1="156.0" style="stroke-dasharray: 9, 5" y2="174.0" stroke="black" stroke-width="0.8333333333333333"/>
<line y2="318.0" stroke-width="2.5" x1="887.9629629629629" x2="1069.4444444444443" stroke="black" y1="156.0"/>
<line y2="30.0" stroke-width="0.8333333333333333" x1="883.3333333333334" x2="1052.7777777777778" stroke="black" y1="219.0"/>
<line x1="883.3333333333334" x2="1061.111111111111" y1="219.0" style="stroke-dasharray: 9, 5" y2="102.0" stroke="black" stroke-width="0.8333333333333333"/>
<line x1="883.3333333333334" x2="1066.6666666666667" y1="219.0" style="stroke-dasharray: 9, 5" y2="246.0" stroke="black" stroke-width="0.41666666666666663"/>
<line x1="883.3333333333334" x2="1071.2962962962963" y1="219.0" style="stroke-dasharray: 9, 5" y2="390.0" stroke="black" stroke-width="0.625"/>
<line y2="102.0" stroke-width="0.7142857142857142" x1="880.5555555555555" x2="1061.111111111111" stroke="black" y1="282.0"/>
<line x1="880.5555555555555" x2="1066.6666666666667" y1="282.0" style="stroke-dasharray: 9, 5" y2="246.0" stroke="black" stroke-width="1.4285714285714284"/>
<line y2="390.0" stroke-width="1.4285714285714284" x1="880.5555555555555" x2="1071.2962962962963" stroke="black" y1="282.0"/>
<line x1="879.6296296296297" x2="1061.111111111111" y1="345.0" style="stroke-dasharray: 9, 5" y2="102.0" stroke="black" stroke-width="1.25"/>
<line y2="246.0" stroke-width="2.5" x1="879.6296296296297" x2="1066.6666666666667" stroke="black" y1="345.0"/>
<line x1="879.6296296296297" x2="1069.4444444444443" y1="345.0" style="stroke-dasharray: 9, 5" y2="318.0" stroke="black" stroke-width="1.25"/>
<line y2="174.0" stroke-width="1.6666666666666665" x1="876.8518518518518" x2="1063.888888888889" stroke="black" y1="408.0"/>
<line x1="876.8518518518518" x2="1069.4444444444443" y1="408.0" style="stroke-dasharray: 9, 5" y2="318.0" stroke="black" stroke-width="1.6666666666666665"/>
<line x1="876.8518518518518" x2="1052.7777777777778" y1="471.0" style="stroke-dasharray: 9, 5" y2="30.0" stroke="black" stroke-width="1.6666666666666665"/>
<line y2="246.0" stroke-width="1.6666666666666665" x1="876.8518518518518" x2="1066.6666666666667" stroke="black" y1="471.0"/>
</svg>

