<?xml version="1.0" encoding="UTF-8"?>
<svg xmlns:xlink="http://www.w3.org/1999/xlink" xmlns="http://www.w3.org/2000/svg" contentScriptType="text/ecmascript" width="1260" zoomAndPan="magnify" contentStyleType="text/css" height="509" preserveAspectRatio="xMidYMid meet" version="1.0">
<radialGradient xlink:actuate="onLoad" xlink:type="simple" id="sphereTheme" xlink:show="other" xmlns:xlink="http://www.w3.org/1999/xlink">
<stop style="stop-color:#C6DD3A" offset="0"/>
<stop style="stop-color:#C3DA39" offset="0.211"/>
<stop style="stop-color:#B8CF37" offset="0.3881"/>
<stop style="stop-color:#A7BE34" offset="0.5529"/>
<stop style="stop-color:#8EA630" offset="0.7103"/>
<stop style="stop-color:#6F872A" offset="0.861"/>
<stop style="stop-color:#4B6323" offset="1"/>
</radialGradient>
<circle fill="url(#sphereTheme)" r="7.537549407114625" cx="30" cy="30"/>
<text x="37.537549407114625" y="30" id="text23" style="font-size:10px;text-anchor:start;fill:#000000;font-family:Verdana">CHARACTER RECOGNITION</text>
<circle fill="url(#sphereTheme)" r="7.124505928853755" cx="30" cy="284"/>
<text x="37.12450592885376" y="284" id="text23" style="font-size:10px;text-anchor:start;fill:#000000;font-family:Verdana">TEXT RECOGNITION</text>
<circle fill="url(#sphereTheme)" r="6.401571941302076" cx="240" cy="30"/>
<text x="246.40157194130208" y="30" id="text23" style="font-size:10px;text-anchor:start;fill:#000000;font-family:Verdana">CHARACTER RECOGNITION</text>
<circle fill="url(#sphereTheme)" r="7.066864295125165" cx="240" cy="157"/>
<text x="247.06686429512516" y="157" id="text23" style="font-size:10px;text-anchor:start;fill:#000000;font-family:Verdana">NUMERAL RECOGNITION</text>
<circle fill="url(#sphereTheme)" r="6.724757455982752" cx="240" cy="284"/>
<text x="246.72475745598274" y="284" id="text23" style="font-size:10px;text-anchor:start;fill:#000000;font-family:Verdana">CHINESE CHARACTER RECOGNITION</text>
<circle fill="url(#sphereTheme)" r="5.576416337285902" cx="240" cy="411"/>
<text x="245.5764163372859" y="411" id="text23" style="font-size:10px;text-anchor:start;fill:#000000;font-family:Verdana">WORD SPOTTING</text>
<line y2="30.0" stroke-width="2.5" x1="37.537549407114625" x2="233.59842805869792" stroke="black" y1="30.0"/>
<line y2="157.0" stroke-width="1.1111111111111112" x1="37.537549407114625" x2="232.93313570487484" stroke="black" y1="30.0"/>
<line x1="37.537549407114625" x2="233.27524254401726" y1="30.0" style="stroke-dasharray: 9, 5" y2="284.0" stroke="black" stroke-width="2.5"/>
<line x1="37.12450592885376" x2="233.59842805869792" y1="284.0" style="stroke-dasharray: 9, 5" y2="30.0" stroke="black" stroke-width="1.6666666666666665"/>
<line x1="37.12450592885376" x2="232.93313570487484" y1="284.0" style="stroke-dasharray: 9, 5" y2="157.0" stroke="black" stroke-width="1.6666666666666665"/>
<line y2="411.0" stroke-width="1.6666666666666665" x1="37.12450592885376" x2="234.4235836627141" stroke="black" y1="284.0"/>
<circle fill="url(#sphereTheme)" r="6.535223155467721" cx="450" cy="30"/>
<text x="456.53522315546775" y="30" id="text23" style="font-size:10px;text-anchor:start;fill:#000000;font-family:Verdana">CHARACTER RECOGNITION</text>
<circle fill="url(#sphereTheme)" r="6.841998581129016" cx="450" cy="157"/>
<text x="456.841998581129" y="157" id="text23" style="font-size:10px;text-anchor:start;fill:#000000;font-family:Verdana">HMM</text>
<circle fill="url(#sphereTheme)" r="6.245765104460757" cx="450" cy="284"/>
<text x="456.24576510446076" y="284" id="text23" style="font-size:10px;text-anchor:start;fill:#000000;font-family:Verdana">CHINESE CHARACTER RECOGNITION</text>
<circle fill="url(#sphereTheme)" r="30.0" cx="450" cy="411"/>
<text x="480.0" y="411" id="text23" style="font-size:10px;text-anchor:start;fill:#000000;font-family:Verdana">WRITER IDENTIFICATION</text>
<line y2="30.0" stroke-width="2.5" x1="246.40157194130208" x2="443.46477684453225" stroke="black" y1="30.0"/>
<line y2="157.0" stroke-width="0.8333333333333333" x1="246.40157194130208" x2="443.158001418871" stroke="black" y1="30.0"/>
<line x1="246.40157194130208" x2="443.75423489553924" y1="30.0" style="stroke-dasharray: 9, 5" y2="284.0" stroke="black" stroke-width="1.0"/>
<line y2="30.0" stroke-width="1.6666666666666665" x1="247.06686429512516" x2="443.46477684453225" stroke="black" y1="157.0"/>
<line x1="247.06686429512516" x2="443.158001418871" y1="157.0" style="stroke-dasharray: 9, 5" y2="157.0" stroke="black" stroke-width="1.1111111111111112"/>
<line x1="247.06686429512516" x2="443.75423489553924" y1="157.0" style="stroke-dasharray: 9, 5" y2="284.0" stroke="black" stroke-width="0.5555555555555556"/>
<line x1="246.72475745598274" x2="443.46477684453225" y1="284.0" style="stroke-dasharray: 9, 5" y2="30.0" stroke="black" stroke-width="1.25"/>
<line x1="246.72475745598274" x2="443.158001418871" y1="284.0" style="stroke-dasharray: 9, 5" y2="157.0" stroke="black" stroke-width="1.25"/>
<line y2="284.0" stroke-width="1.25" x1="246.72475745598274" x2="443.75423489553924" stroke="black" y1="284.0"/>
<line x1="245.5764163372859" x2="443.46477684453225" y1="411.0" style="stroke-dasharray: 9, 5" y2="30.0" stroke="black" stroke-width="1.6666666666666665"/>
<circle fill="url(#sphereTheme)" r="5.749053318223279" cx="660" cy="30"/>
<text x="665.7490533182233" y="30" id="text23" style="font-size:10px;text-anchor:start;fill:#000000;font-family:Verdana">FEATURE-EXTRACTION</text>
<circle fill="url(#sphereTheme)" r="7.195988562778572" cx="660" cy="157"/>
<text x="667.1959885627786" y="157" id="text23" style="font-size:10px;text-anchor:start;fill:#000000;font-family:Verdana">HMM</text>
<circle fill="url(#sphereTheme)" r="5.465467027251925" cx="660" cy="284"/>
<text x="665.465467027252" y="284" id="text23" style="font-size:10px;text-anchor:start;fill:#000000;font-family:Verdana">CHINESE CHARACTER RECOGNITION</text>
<circle fill="url(#sphereTheme)" r="5.380054727880815" cx="660" cy="411"/>
<text x="665.3800547278809" y="411" id="text23" style="font-size:10px;text-anchor:start;fill:#000000;font-family:Verdana">WRITER IDENTIFICATION</text>
<line y2="30.0" stroke-width="2.0833333333333335" x1="456.53522315546775" x2="654.2509466817767" stroke="black" y1="30.0"/>
<line x1="456.53522315546775" x2="652.8040114372214" y1="30.0" style="stroke-dasharray: 9, 5" y2="157.0" stroke="black" stroke-width="0.8333333333333333"/>
<line x1="456.53522315546775" x2="654.534532972748" y1="30.0" style="stroke-dasharray: 9, 5" y2="284.0" stroke="black" stroke-width="1.0"/>
<line x1="456.53522315546775" x2="654.6199452721191" y1="30.0" style="stroke-dasharray: 9, 5" y2="411.0" stroke="black" stroke-width="0.8333333333333333"/>
<line x1="456.841998581129" x2="654.2509466817767" y1="157.0" style="stroke-dasharray: 9, 5" y2="30.0" stroke="black" stroke-width="0.8333333333333333"/>
<line y2="157.0" stroke-width="2.5" x1="456.841998581129" x2="652.8040114372214" stroke="black" y1="157.0"/>
<line x1="456.24576510446076" x2="654.2509466817767" y1="284.0" style="stroke-dasharray: 9, 5" y2="30.0" stroke="black" stroke-width="1.0"/>
<line x1="456.24576510446076" x2="652.8040114372214" y1="284.0" style="stroke-dasharray: 9, 5" y2="157.0" stroke="black" stroke-width="0.5"/>
<line y2="284.0" stroke-width="2.5" x1="456.24576510446076" x2="654.534532972748" stroke="black" y1="284.0"/>
<line x1="480.0" x2="654.2509466817767" y1="411.0" style="stroke-dasharray: 9, 5" y2="30.0" stroke="black" stroke-width="1.25"/>
<line y2="411.0" stroke-width="3.75" x1="480.0" x2="654.6199452721191" stroke="black" y1="411.0"/>
<circle fill="url(#sphereTheme)" r="5.453832362169431" cx="870" cy="30"/>
<text x="875.4538323621695" y="30" id="text23" style="font-size:10px;text-anchor:start;fill:#000000;font-family:Verdana">CHARACTER RECOGNITION</text>
<circle fill="url(#sphereTheme)" r="5.511150148831308" cx="870" cy="93"/>
<text x="875.5111501488313" y="93" id="text23" style="font-size:10px;text-anchor:start;fill:#000000;font-family:Verdana">SEGMENTATION</text>
<circle fill="url(#sphereTheme)" r="5.878458498023716" cx="870" cy="156"/>
<text x="875.8784584980237" y="156" id="text23" style="font-size:10px;text-anchor:start;fill:#000000;font-family:Verdana">HMM</text>
<circle fill="url(#sphereTheme)" r="5.373720482416134" cx="870" cy="219"/>
<text x="875.3737204824162" y="219" id="text23" style="font-size:10px;text-anchor:start;fill:#000000;font-family:Verdana">NUMERAL RECOGNITION</text>
<circle fill="url(#sphereTheme)" r="5.282326369282891" cx="870" cy="282"/>
<text x="875.2823263692829" y="282" id="text23" style="font-size:10px;text-anchor:start;fill:#000000;font-family:Verdana">SIGNATUR VERIFICATION</text>
<circle fill="url(#sphereTheme)" r="5.43917435221783" cx="870" cy="345"/>
<text x="875.4391743522178" y="345" id="text23" style="font-size:10px;text-anchor:start;fill:#000000;font-family:Verdana">SCRIPT IDENTIFICATION</text>
<circle fill="url(#sphereTheme)" r="5.62994071146245" cx="870" cy="408"/>
<text x="875.6299407114625" y="408" id="text23" style="font-size:10px;text-anchor:start;fill:#000000;font-family:Verdana">HISTORICAL-DOCUMENTS</text>
<circle fill="url(#sphereTheme)" r="5.207509881422925" cx="870" cy="471"/>
<text x="875.2075098814229" y="471" id="text23" style="font-size:10px;text-anchor:start;fill:#000000;font-family:Verdana">CHINESE CHARACTER RECOGNITION</text>
<line y2="30.0" stroke-width="3.75" x1="665.7490533182233" x2="864.5461676378305" stroke="black" y1="30.0"/>
<line y2="219.0" stroke-width="1.25" x1="665.7490533182233" x2="864.6262795175838" stroke="black" y1="30.0"/>
<line x1="667.1959885627786" x2="864.5461676378305" y1="157.0" style="stroke-dasharray: 9, 5" y2="30.0" stroke="black" stroke-width="0.41666666666666663"/>
<line x1="667.1959885627786" x2="864.4888498511687" y1="157.0" style="stroke-dasharray: 9, 5" y2="93.0" stroke="black" stroke-width="0.8333333333333333"/>
<line y2="156.0" stroke-width="1.6666666666666665" x1="667.1959885627786" x2="864.1215415019763" stroke="black" y1="157.0"/>
<line x1="667.1959885627786" x2="864.6262795175838" y1="157.0" style="stroke-dasharray: 9, 5" y2="219.0" stroke="black" stroke-width="0.41666666666666663"/>
<line x1="667.1959885627786" x2="864.7176736307171" y1="157.0" style="stroke-dasharray: 9, 5" y2="282.0" stroke="black" stroke-width="0.7142857142857142"/>
<line x1="667.1959885627786" x2="864.5608256477822" y1="157.0" style="stroke-dasharray: 9, 5" y2="345.0" stroke="black" stroke-width="1.25"/>
<line x1="667.1959885627786" x2="864.3700592885375" y1="157.0" style="stroke-dasharray: 9, 5" y2="408.0" stroke="black" stroke-width="1.6666666666666665"/>
<line x1="665.465467027252" x2="864.5461676378305" y1="284.0" style="stroke-dasharray: 9, 5" y2="30.0" stroke="black" stroke-width="0.5"/>
<line x1="665.465467027252" x2="864.4888498511687" y1="284.0" style="stroke-dasharray: 9, 5" y2="93.0" stroke="black" stroke-width="2.0"/>
<line x1="665.465467027252" x2="864.7176736307171" y1="284.0" style="stroke-dasharray: 9, 5" y2="282.0" stroke="black" stroke-width="0.7142857142857142"/>
<line y2="471.0" stroke-width="1.6666666666666665" x1="665.465467027252" x2="864.7924901185771" stroke="black" y1="284.0"/>
<line y2="93.0" stroke-width="0.8333333333333333" x1="665.3800547278809" x2="864.4888498511687" stroke="black" y1="411.0"/>
<line y2="282.0" stroke-width="2.5" x1="665.3800547278809" x2="864.7176736307171" stroke="black" y1="411.0"/>
<line y2="345.0" stroke-width="2.5" x1="665.3800547278809" x2="864.5608256477822" stroke="black" y1="411.0"/>
<circle fill="url(#sphereTheme)" r="5.269947651087711" cx="1080" cy="30"/>
<text x="1085.2699476510877" y="30" id="text23" style="font-size:10px;text-anchor:start;fill:#000000;font-family:Verdana">DNN</text>
<circle fill="url(#sphereTheme)" r="5.1954740784998625" cx="1080" cy="102"/>
<text x="1085.1954740785" y="102" id="text23" style="font-size:10px;text-anchor:start;fill:#000000;font-family:Verdana">SVM</text>
<circle fill="url(#sphereTheme)" r="5.213970811796899" cx="1080" cy="174"/>
<text x="1085.2139708117968" y="174" id="text23" style="font-size:10px;text-anchor:start;fill:#000000;font-family:Verdana">SEGMENTATION</text>
<circle fill="url(#sphereTheme)" r="5.2989549139143834" cx="1080" cy="246"/>
<text x="1085.2989549139145" y="246" id="text23" style="font-size:10px;text-anchor:start;fill:#000000;font-family:Verdana">ENSEMBLE CLASSIFICATION</text>
<circle fill="url(#sphereTheme)" r="5.223406083519505" cx="1080" cy="318"/>
<text x="1085.2234060835194" y="318" id="text23" style="font-size:10px;text-anchor:start;fill:#000000;font-family:Verdana">HMM</text>
<circle fill="url(#sphereTheme)" r="5.13175230566535" cx="1080" cy="390"/>
<text x="1085.1317523056653" y="390" id="text23" style="font-size:10px;text-anchor:start;fill:#000000;font-family:Verdana">WRITER IDENTIFICATION</text>
<circle fill="url(#sphereTheme)" r="5.123517786561265" cx="1080" cy="462"/>
<text x="1085.1235177865613" y="462" id="text23" style="font-size:10px;text-anchor:start;fill:#000000;font-family:Verdana">ATTENTION MECHANISM</text>
<line y2="30.0" stroke-width="0.8333333333333333" x1="875.4538323621695" x2="1074.7300523489123" stroke="black" y1="30.0"/>
<line y2="102.0" stroke-width="2.5" x1="875.4538323621695" x2="1074.8045259215" stroke="black" y1="30.0"/>
<line x1="875.4538323621695" x2="1074.7860291882032" y1="30.0" style="stroke-dasharray: 9, 5" y2="174.0" stroke="black" stroke-width="0.41666666666666663"/>
<line x1="875.4538323621695" x2="1074.7010450860855" y1="30.0" style="stroke-dasharray: 9, 5" y2="246.0" stroke="black" stroke-width="0.41666666666666663"/>
<line x1="875.4538323621695" x2="1074.8682476943347" y1="30.0" style="stroke-dasharray: 9, 5" y2="390.0" stroke="black" stroke-width="0.625"/>
<line x1="875.5111501488313" x2="1074.7300523489123" y1="93.0" style="stroke-dasharray: 9, 5" y2="30.0" stroke="black" stroke-width="0.41666666666666663"/>
<line y2="174.0" stroke-width="2.0833333333333335" x1="875.5111501488313" x2="1074.7860291882032" stroke="black" y1="93.0"/>
<line x1="875.5111501488313" x2="1074.7010450860855" y1="93.0" style="stroke-dasharray: 9, 5" y2="246.0" stroke="black" stroke-width="1.25"/>
<line x1="875.8784584980237" x2="1074.7300523489123" y1="156.0" style="stroke-dasharray: 9, 5" y2="30.0" stroke="black" stroke-width="0.8333333333333333"/>
<line x1="875.8784584980237" x2="1074.7860291882032" y1="156.0" style="stroke-dasharray: 9, 5" y2="174.0" stroke="black" stroke-width="0.8333333333333333"/>
<line y2="318.0" stroke-width="2.5" x1="875.8784584980237" x2="1074.7765939164806" stroke="black" y1="156.0"/>
<line y2="30.0" stroke-width="0.8333333333333333" x1="875.3737204824162" x2="1074.7300523489123" stroke="black" y1="219.0"/>
<line x1="875.3737204824162" x2="1074.8045259215" y1="219.0" style="stroke-dasharray: 9, 5" y2="102.0" stroke="black" stroke-width="0.8333333333333333"/>
<line x1="875.3737204824162" x2="1074.7010450860855" y1="219.0" style="stroke-dasharray: 9, 5" y2="246.0" stroke="black" stroke-width="0.41666666666666663"/>
<line x1="875.3737204824162" x2="1074.8682476943347" y1="219.0" style="stroke-dasharray: 9, 5" y2="390.0" stroke="black" stroke-width="0.625"/>
<line y2="102.0" stroke-width="0.7142857142857142" x1="875.2823263692829" x2="1074.8045259215" stroke="black" y1="282.0"/>
<line x1="875.2823263692829" x2="1074.7010450860855" y1="282.0" style="stroke-dasharray: 9, 5" y2="246.0" stroke="black" stroke-width="1.4285714285714284"/>
<line y2="390.0" stroke-width="1.4285714285714284" x1="875.2823263692829" x2="1074.8682476943347" stroke="black" y1="282.0"/>
<line x1="875.4391743522178" x2="1074.8045259215" y1="345.0" style="stroke-dasharray: 9, 5" y2="102.0" stroke="black" stroke-width="1.25"/>
<line y2="246.0" stroke-width="2.5" x1="875.4391743522178" x2="1074.7010450860855" stroke="black" y1="345.0"/>
<line x1="875.4391743522178" x2="1074.7765939164806" y1="345.0" style="stroke-dasharray: 9, 5" y2="318.0" stroke="black" stroke-width="1.25"/>
<line y2="174.0" stroke-width="1.6666666666666665" x1="875.6299407114625" x2="1074.7860291882032" stroke="black" y1="408.0"/>
<line x1="875.6299407114625" x2="1074.7765939164806" y1="408.0" style="stroke-dasharray: 9, 5" y2="318.0" stroke="black" stroke-width="1.6666666666666665"/>
<line x1="875.2075098814229" x2="1074.7300523489123" y1="471.0" style="stroke-dasharray: 9, 5" y2="30.0" stroke="black" stroke-width="1.6666666666666665"/>
<line y2="246.0" stroke-width="1.6666666666666665" x1="875.2075098814229" x2="1074.7010450860855" stroke="black" y1="471.0"/>
</svg>

