<?xml version="1.0" encoding="UTF-8"?>
<svg xmlns:xlink="http://www.w3.org/1999/xlink" xmlns="http://www.w3.org/2000/svg" contentScriptType="text/ecmascript" width="1260" zoomAndPan="magnify" contentStyleType="text/css" height="509" preserveAspectRatio="xMidYMid meet" version="1.0">
<radialGradient xlink:actuate="onLoad" xlink:type="simple" id="sphereTheme" xlink:show="other" xmlns:xlink="http://www.w3.org/1999/xlink">
<stop style="stop-color:#C6DD3A" offset="0"/>
<stop style="stop-color:#C3DA39" offset="0.211"/>
<stop style="stop-color:#B8CF37" offset="0.3881"/>
<stop style="stop-color:#A7BE34" offset="0.5529"/>
<stop style="stop-color:#8EA630" offset="0.7103"/>
<stop style="stop-color:#6F872A" offset="0.861"/>
<stop style="stop-color:#4B6323" offset="1"/>
</radialGradient>
<circle fill="url(#sphereTheme)" r="15.760978880321824" cx="30" cy="30"/>
<text x="45.76097888032182" y="30" id="text23" style="font-size:10px;text-anchor:start;fill:#000000;font-family:Verdana">CHARACTER RECOGNITION</text>
<circle fill="url(#sphereTheme)" r="6.0811263828360715" cx="30" cy="284"/>
<text x="36.081126382836075" y="284" id="text23" style="font-size:10px;text-anchor:start;fill:#000000;font-family:Verdana">TEXT RECOGNITION</text>
<circle fill="url(#sphereTheme)" r="25.683875293328864" cx="240" cy="30"/>
<text x="265.68387529332887" y="30" id="text23" style="font-size:10px;text-anchor:start;fill:#000000;font-family:Verdana">CHARACTER RECOGNITION</text>
<circle fill="url(#sphereTheme)" r="11.310760978880321" cx="240" cy="157"/>
<text x="251.31076097888032" y="157" id="text23" style="font-size:10px;text-anchor:start;fill:#000000;font-family:Verdana">NUMERAL RECOGNITION</text>
<circle fill="url(#sphereTheme)" r="8.21823667448877" cx="240" cy="284"/>
<text x="248.21823667448876" y="284" id="text23" style="font-size:10px;text-anchor:start;fill:#000000;font-family:Verdana">CHINESE CHARACTER RECOGNITION</text>
<circle fill="url(#sphereTheme)" r="5.293328863560174" cx="240" cy="411"/>
<text x="245.29332886356016" y="411" id="text23" style="font-size:10px;text-anchor:start;fill:#000000;font-family:Verdana">WORD SPOTTING</text>
<line y2="30.0" stroke-width="2.5" x1="45.76097888032182" x2="214.31612470667113" stroke="black" y1="30.0"/>
<line y2="157.0" stroke-width="1.1111111111111112" x1="45.76097888032182" x2="228.68923902111968" stroke="black" y1="30.0"/>
<line x1="45.76097888032182" x2="231.78176332551124" y1="30.0" style="stroke-dasharray: 9, 5" y2="284.0" stroke="black" stroke-width="2.5"/>
<line x1="36.081126382836075" x2="214.31612470667113" y1="284.0" style="stroke-dasharray: 9, 5" y2="30.0" stroke="black" stroke-width="1.6666666666666665"/>
<line x1="36.081126382836075" x2="228.68923902111968" y1="284.0" style="stroke-dasharray: 9, 5" y2="157.0" stroke="black" stroke-width="1.6666666666666665"/>
<line y2="411.0" stroke-width="1.6666666666666665" x1="36.081126382836075" x2="234.70667113643984" stroke="black" y1="284.0"/>
<circle fill="url(#sphereTheme)" r="30.0" cx="450" cy="30"/>
<text x="480.0" y="30" id="text23" style="font-size:10px;text-anchor:start;fill:#000000;font-family:Verdana">CHARACTER RECOGNITION</text>
<circle fill="url(#sphereTheme)" r="17.185719074756957" cx="450" cy="157"/>
<text x="467.18571907475695" y="157" id="text23" style="font-size:10px;text-anchor:start;fill:#000000;font-family:Verdana">HMM</text>
<circle fill="url(#sphereTheme)" r="10.916862219242374" cx="450" cy="284"/>
<text x="460.9168622192424" y="284" id="text23" style="font-size:10px;text-anchor:start;fill:#000000;font-family:Verdana">CHINESE CHARACTER RECOGNITION</text>
<circle fill="url(#sphereTheme)" r="21.962789138451225" cx="450" cy="411"/>
<text x="471.9627891384512" y="411" id="text23" style="font-size:10px;text-anchor:start;fill:#000000;font-family:Verdana">WRITER IDENTIFICATION</text>
<line y2="30.0" stroke-width="2.5" x1="265.68387529332887" x2="420.0" stroke="black" y1="30.0"/>
<line y2="157.0" stroke-width="0.8333333333333333" x1="265.68387529332887" x2="432.81428092524305" stroke="black" y1="30.0"/>
<line x1="265.68387529332887" x2="439.0831377807576" y1="30.0" style="stroke-dasharray: 9, 5" y2="284.0" stroke="black" stroke-width="1.0"/>
<line y2="30.0" stroke-width="1.6666666666666665" x1="251.31076097888032" x2="420.0" stroke="black" y1="157.0"/>
<line x1="251.31076097888032" x2="432.81428092524305" y1="157.0" style="stroke-dasharray: 9, 5" y2="157.0" stroke="black" stroke-width="1.1111111111111112"/>
<line x1="251.31076097888032" x2="439.0831377807576" y1="157.0" style="stroke-dasharray: 9, 5" y2="284.0" stroke="black" stroke-width="0.5555555555555556"/>
<line x1="248.21823667448876" x2="420.0" y1="284.0" style="stroke-dasharray: 9, 5" y2="30.0" stroke="black" stroke-width="1.25"/>
<line x1="248.21823667448876" x2="432.81428092524305" y1="284.0" style="stroke-dasharray: 9, 5" y2="157.0" stroke="black" stroke-width="1.25"/>
<line y2="284.0" stroke-width="1.25" x1="248.21823667448876" x2="439.0831377807576" stroke="black" y1="284.0"/>
<line x1="245.29332886356016" x2="420.0" y1="411.0" style="stroke-dasharray: 9, 5" y2="30.0" stroke="black" stroke-width="1.6666666666666665"/>
<circle fill="url(#sphereTheme)" r="23.16962789138451" cx="660" cy="30"/>
<text x="683.1696278913845" y="30" id="text23" style="font-size:10px;text-anchor:start;fill:#000000;font-family:Verdana">FEATURE-EXTRACTION</text>
<circle fill="url(#sphereTheme)" r="22.507542742205835" cx="660" cy="157"/>
<text x="682.5075427422058" y="157" id="text23" style="font-size:10px;text-anchor:start;fill:#000000;font-family:Verdana">HMM</text>
<circle fill="url(#sphereTheme)" r="6.500167616493463" cx="660" cy="284"/>
<text x="666.5001676164935" y="284" id="text23" style="font-size:10px;text-anchor:start;fill:#000000;font-family:Verdana">CHINESE CHARACTER RECOGNITION</text>
<circle fill="url(#sphereTheme)" r="5.838082467314784" cx="660" cy="411"/>
<text x="665.8380824673147" y="411" id="text23" style="font-size:10px;text-anchor:start;fill:#000000;font-family:Verdana">WRITER IDENTIFICATION</text>
<line y2="30.0" stroke-width="2.0833333333333335" x1="480.0" x2="636.8303721086155" stroke="black" y1="30.0"/>
<line x1="480.0" x2="637.4924572577942" y1="30.0" style="stroke-dasharray: 9, 5" y2="157.0" stroke="black" stroke-width="0.8333333333333333"/>
<line x1="480.0" x2="653.4998323835065" y1="30.0" style="stroke-dasharray: 9, 5" y2="284.0" stroke="black" stroke-width="1.0"/>
<line x1="480.0" x2="654.1619175326853" y1="30.0" style="stroke-dasharray: 9, 5" y2="411.0" stroke="black" stroke-width="0.8333333333333333"/>
<line x1="467.18571907475695" x2="636.8303721086155" y1="157.0" style="stroke-dasharray: 9, 5" y2="30.0" stroke="black" stroke-width="0.8333333333333333"/>
<line y2="157.0" stroke-width="2.5" x1="467.18571907475695" x2="637.4924572577942" stroke="black" y1="157.0"/>
<line x1="460.9168622192424" x2="636.8303721086155" y1="284.0" style="stroke-dasharray: 9, 5" y2="30.0" stroke="black" stroke-width="1.0"/>
<line x1="460.9168622192424" x2="637.4924572577942" y1="284.0" style="stroke-dasharray: 9, 5" y2="157.0" stroke="black" stroke-width="0.5"/>
<line y2="284.0" stroke-width="2.5" x1="460.9168622192424" x2="653.4998323835065" stroke="black" y1="284.0"/>
<line x1="471.9627891384512" x2="636.8303721086155" y1="411.0" style="stroke-dasharray: 9, 5" y2="30.0" stroke="black" stroke-width="1.25"/>
<line y2="411.0" stroke-width="3.75" x1="471.9627891384512" x2="654.1619175326853" stroke="black" y1="411.0"/>
<circle fill="url(#sphereTheme)" r="27.401944351324172" cx="870" cy="30"/>
<text x="897.4019443513241" y="30" id="text23" style="font-size:10px;text-anchor:start;fill:#000000;font-family:Verdana">CHARACTER RECOGNITION</text>
<circle fill="url(#sphereTheme)" r="12.023131076097888" cx="870" cy="93"/>
<text x="882.0231310760979" y="93" id="text23" style="font-size:10px;text-anchor:start;fill:#000000;font-family:Verdana">SEGMENTATION</text>
<circle fill="url(#sphereTheme)" r="12.450553134428429" cx="870" cy="156"/>
<text x="882.4505531344284" y="156" id="text23" style="font-size:10px;text-anchor:start;fill:#000000;font-family:Verdana">HMM</text>
<circle fill="url(#sphereTheme)" r="7.472343278578612" cx="870" cy="219"/>
<text x="877.4723432785786" y="219" id="text23" style="font-size:10px;text-anchor:start;fill:#000000;font-family:Verdana">NUMERAL RECOGNITION</text>
<circle fill="url(#sphereTheme)" r="6.005698960777741" cx="870" cy="282"/>
<text x="876.0056989607777" y="282" id="text23" style="font-size:10px;text-anchor:start;fill:#000000;font-family:Verdana">SIGNATUR VERIFICATION</text>
<circle fill="url(#sphereTheme)" r="5.670465973851827" cx="870" cy="345"/>
<text x="875.6704659738518" y="345" id="text23" style="font-size:10px;text-anchor:start;fill:#000000;font-family:Verdana">SCRIPT IDENTIFICATION</text>
<circle fill="url(#sphereTheme)" r="5.4274220583305395" cx="870" cy="408"/>
<text x="875.4274220583305" y="408" id="text23" style="font-size:10px;text-anchor:start;fill:#000000;font-family:Verdana">HISTORICAL-DOCUMENTS</text>
<circle fill="url(#sphereTheme)" r="5.175997318136105" cx="870" cy="471"/>
<text x="875.1759973181361" y="471" id="text23" style="font-size:10px;text-anchor:start;fill:#000000;font-family:Verdana">CHINESE CHARACTER RECOGNITION</text>
<line y2="30.0" stroke-width="3.75" x1="683.1696278913845" x2="842.5980556486759" stroke="black" y1="30.0"/>
<line y2="219.0" stroke-width="1.25" x1="683.1696278913845" x2="862.5276567214214" stroke="black" y1="30.0"/>
<line x1="682.5075427422058" x2="842.5980556486759" y1="157.0" style="stroke-dasharray: 9, 5" y2="30.0" stroke="black" stroke-width="0.41666666666666663"/>
<line x1="682.5075427422058" x2="857.9768689239021" y1="157.0" style="stroke-dasharray: 9, 5" y2="93.0" stroke="black" stroke-width="0.8333333333333333"/>
<line y2="156.0" stroke-width="1.6666666666666665" x1="682.5075427422058" x2="857.5494468655716" stroke="black" y1="157.0"/>
<line x1="682.5075427422058" x2="862.5276567214214" y1="157.0" style="stroke-dasharray: 9, 5" y2="219.0" stroke="black" stroke-width="0.41666666666666663"/>
<line x1="682.5075427422058" x2="863.9943010392223" y1="157.0" style="stroke-dasharray: 9, 5" y2="282.0" stroke="black" stroke-width="0.7142857142857142"/>
<line x1="682.5075427422058" x2="864.3295340261482" y1="157.0" style="stroke-dasharray: 9, 5" y2="345.0" stroke="black" stroke-width="1.25"/>
<line x1="682.5075427422058" x2="864.5725779416695" y1="157.0" style="stroke-dasharray: 9, 5" y2="408.0" stroke="black" stroke-width="1.6666666666666665"/>
<line x1="666.5001676164935" x2="842.5980556486759" y1="284.0" style="stroke-dasharray: 9, 5" y2="30.0" stroke="black" stroke-width="0.5"/>
<line x1="666.5001676164935" x2="857.9768689239021" y1="284.0" style="stroke-dasharray: 9, 5" y2="93.0" stroke="black" stroke-width="2.0"/>
<line x1="666.5001676164935" x2="863.9943010392223" y1="284.0" style="stroke-dasharray: 9, 5" y2="282.0" stroke="black" stroke-width="0.7142857142857142"/>
<line y2="471.0" stroke-width="1.6666666666666665" x1="666.5001676164935" x2="864.8240026818639" stroke="black" y1="284.0"/>
<line y2="93.0" stroke-width="0.8333333333333333" x1="665.8380824673147" x2="857.9768689239021" stroke="black" y1="411.0"/>
<line y2="282.0" stroke-width="2.5" x1="665.8380824673147" x2="863.9943010392223" stroke="black" y1="411.0"/>
<line y2="345.0" stroke-width="2.5" x1="665.8380824673147" x2="864.3295340261482" stroke="black" y1="411.0"/>
<circle fill="url(#sphereTheme)" r="28.99430103922226" cx="1080" cy="30"/>
<text x="1108.9943010392224" y="30" id="text23" style="font-size:10px;text-anchor:start;fill:#000000;font-family:Verdana">DNN</text>
<circle fill="url(#sphereTheme)" r="16.40630238015421" cx="1080" cy="102"/>
<text x="1096.406302380154" y="102" id="text23" style="font-size:10px;text-anchor:start;fill:#000000;font-family:Verdana">SVM</text>
<circle fill="url(#sphereTheme)" r="9.718404290982232" cx="1080" cy="174"/>
<text x="1089.7184042909823" y="174" id="text23" style="font-size:10px;text-anchor:start;fill:#000000;font-family:Verdana">SEGMENTATION</text>
<circle fill="url(#sphereTheme)" r="7.991954408313778" cx="1080" cy="246"/>
<text x="1087.9919544083139" y="246" id="text23" style="font-size:10px;text-anchor:start;fill:#000000;font-family:Verdana">ENSEMBLE CLASSIFICATION</text>
<circle fill="url(#sphereTheme)" r="5.8716057660073755" cx="1080" cy="318"/>
<text x="1085.8716057660074" y="318" id="text23" style="font-size:10px;text-anchor:start;fill:#000000;font-family:Verdana">HMM</text>
<circle fill="url(#sphereTheme)" r="5.4022795843110964" cx="1080" cy="390"/>
<text x="1085.4022795843111" y="390" id="text23" style="font-size:10px;text-anchor:start;fill:#000000;font-family:Verdana">WRITER IDENTIFICATION</text>
<circle fill="url(#sphereTheme)" r="5.083808246731478" cx="1080" cy="462"/>
<text x="1085.0838082467315" y="462" id="text23" style="font-size:10px;text-anchor:start;fill:#000000;font-family:Verdana">ATTENTION MECHANISM</text>
<line y2="30.0" stroke-width="0.8333333333333333" x1="897.4019443513241" x2="1051.0056989607776" stroke="black" y1="30.0"/>
<line y2="102.0" stroke-width="2.5" x1="897.4019443513241" x2="1063.593697619846" stroke="black" y1="30.0"/>
<line x1="897.4019443513241" x2="1070.2815957090177" y1="30.0" style="stroke-dasharray: 9, 5" y2="174.0" stroke="black" stroke-width="0.41666666666666663"/>
<line x1="897.4019443513241" x2="1072.0080455916861" y1="30.0" style="stroke-dasharray: 9, 5" y2="246.0" stroke="black" stroke-width="0.41666666666666663"/>
<line x1="897.4019443513241" x2="1074.5977204156889" y1="30.0" style="stroke-dasharray: 9, 5" y2="390.0" stroke="black" stroke-width="0.625"/>
<line x1="882.0231310760979" x2="1051.0056989607776" y1="93.0" style="stroke-dasharray: 9, 5" y2="30.0" stroke="black" stroke-width="0.41666666666666663"/>
<line y2="174.0" stroke-width="2.0833333333333335" x1="882.0231310760979" x2="1070.2815957090177" stroke="black" y1="93.0"/>
<line x1="882.0231310760979" x2="1072.0080455916861" y1="93.0" style="stroke-dasharray: 9, 5" y2="246.0" stroke="black" stroke-width="1.25"/>
<line x1="882.4505531344284" x2="1051.0056989607776" y1="156.0" style="stroke-dasharray: 9, 5" y2="30.0" stroke="black" stroke-width="0.8333333333333333"/>
<line x1="882.4505531344284" x2="1070.2815957090177" y1="156.0" style="stroke-dasharray: 9, 5" y2="174.0" stroke="black" stroke-width="0.8333333333333333"/>
<line y2="318.0" stroke-width="2.5" x1="882.4505531344284" x2="1074.1283942339926" stroke="black" y1="156.0"/>
<line y2="30.0" stroke-width="0.8333333333333333" x1="877.4723432785786" x2="1051.0056989607776" stroke="black" y1="219.0"/>
<line x1="877.4723432785786" x2="1063.593697619846" y1="219.0" style="stroke-dasharray: 9, 5" y2="102.0" stroke="black" stroke-width="0.8333333333333333"/>
<line x1="877.4723432785786" x2="1072.0080455916861" y1="219.0" style="stroke-dasharray: 9, 5" y2="246.0" stroke="black" stroke-width="0.41666666666666663"/>
<line x1="877.4723432785786" x2="1074.5977204156889" y1="219.0" style="stroke-dasharray: 9, 5" y2="390.0" stroke="black" stroke-width="0.625"/>
<line y2="102.0" stroke-width="0.7142857142857142" x1="876.0056989607777" x2="1063.593697619846" stroke="black" y1="282.0"/>
<line x1="876.0056989607777" x2="1072.0080455916861" y1="282.0" style="stroke-dasharray: 9, 5" y2="246.0" stroke="black" stroke-width="1.4285714285714284"/>
<line y2="390.0" stroke-width="1.4285714285714284" x1="876.0056989607777" x2="1074.5977204156889" stroke="black" y1="282.0"/>
<line x1="875.6704659738518" x2="1063.593697619846" y1="345.0" style="stroke-dasharray: 9, 5" y2="102.0" stroke="black" stroke-width="1.25"/>
<line y2="246.0" stroke-width="2.5" x1="875.6704659738518" x2="1072.0080455916861" stroke="black" y1="345.0"/>
<line x1="875.6704659738518" x2="1074.1283942339926" y1="345.0" style="stroke-dasharray: 9, 5" y2="318.0" stroke="black" stroke-width="1.25"/>
<line y2="174.0" stroke-width="1.6666666666666665" x1="875.4274220583305" x2="1070.2815957090177" stroke="black" y1="408.0"/>
<line x1="875.4274220583305" x2="1074.1283942339926" y1="408.0" style="stroke-dasharray: 9, 5" y2="318.0" stroke="black" stroke-width="1.6666666666666665"/>
<line x1="875.1759973181361" x2="1051.0056989607776" y1="471.0" style="stroke-dasharray: 9, 5" y2="30.0" stroke="black" stroke-width="1.6666666666666665"/>
<line y2="246.0" stroke-width="1.6666666666666665" x1="875.1759973181361" x2="1072.0080455916861" stroke="black" y1="471.0"/>
</svg>

